<?xml version="1.0" standalone="no"?>
<!DOCTYPE svg PUBLIC "-//W3C//DTD SVG 20010904//EN"
 "http://www.w3.org/TR/2001/REC-SVG-20010904/DTD/svg10.dtd">
<svg version="1.0" xmlns="http://www.w3.org/2000/svg"
 width="842.000000pt" height="842.000000pt" viewBox="0 0 842.000000 842.000000"
 preserveAspectRatio="xMidYMid meet">
<metadata>
Created by potrace 1.11, written by Peter Selinger 2001-2013
</metadata>
<g transform="translate(0.000000,842.000000) scale(0.100000,-0.100000)"
fill="#000000" stroke="none">
<path d="M547 8176 c-3 -7 -35 -19 -73 -26 -183 -35 -349 -176 -417 -355 l-22
-60 -3 -3505 c-2 -2606 0 -3519 8 -3560 42 -200 206 -366 412 -416 38 -9 68
-21 68 -25 0 -12 7377 -12 7385 0 3 5 30 15 61 21 206 43 386 230 425 443 7
37 16 67 21 67 4 0 8 1548 8 3440 0 1951 -4 3440 -9 3440 -5 0 -11 19 -15 43
-36 230 -203 410 -431 463 -38 9 -75 23 -81 30 -17 21 -7329 21 -7337 0z
m3673 -1351 l0 -495 -367 -1 c-203 0 -386 -2 -408 -5 -327 -37 -594 -168 -817
-403 -215 -225 -334 -483 -382 -826 -2 -16 -5 -815 -5 -1775 l-1 -1745 -465 2
-464 3 -2 1787 c0 984 1 1804 5 1823 3 19 8 53 10 75 60 511 310 1026 681
1399 357 359 856 604 1312 642 43 4 80 8 82 10 1 1 187 3 412 4 l409 1 0 -496z
m412 438 c50 -67 93 -157 124 -260 26 -85 27 -98 34 -453 5 -201 11 -1403 15
-2672 l7 -2308 -378 0 c-209 0 -416 -3 -460 -6 l-82 -7 -6 1219 c-3 671 -8
1699 -11 2287 l-5 1067 300 0 300 0 0 590 0 590 63 0 63 0 36 -47z m2855 -110
c-27 -651 -263 -1285 -667 -1793 -123 -155 -404 -429 -509 -496 -2 -2 14 -17
35 -35 137 -115 342 -345 454 -509 216 -318 370 -729 432 -1154 29 -198 31
-564 4 -756 -87 -630 -345 -1160 -765 -1575 l-91 -90 -17 25 c-10 14 -142 203
-294 420 l-276 395 53 48 c163 147 325 414 397 658 55 183 62 237 62 489 -1
222 -2 241 -29 355 -50 214 -116 369 -231 541 -207 311 -521 518 -865 570 -52
7 -114 14 -137 14 l-43 0 0 538 0 537 98 23 c114 28 263 84 382 145 614 316
1018 956 1056 1675 l7 122 475 0 475 0 -6 -147z m-6380 -3950 c-2 -2 -162 -2
-355 -1 l-352 3 353 498 352 498 3 -497 c1 -273 1 -499 -1 -501z m2498 922
c-43 -482 -507 -882 -1070 -921 -52 -4 -95 -5 -95 -3 0 2 -3 228 -7 502 l-6
497 593 0 592 0 -7 -75z"/>
</g>
</svg>
