<?xml version="1.0" encoding="UTF-8" standalone="no"?>
<svg width="19px" height="18px" viewBox="0 0 19 18" version="1.1" xmlns="http://www.w3.org/2000/svg" xmlns:xlink="http://www.w3.org/1999/xlink">
    <!-- Generator: Sketch 39.1 (31720) - http://www.bohemiancoding.com/sketch -->
    <title>icon_retailer_crofarm</title>
    <desc>Created with Sketch.</desc>
    <defs></defs>
    <g id="Welcome" stroke="none" stroke-width="1" fill="none" fill-rule="evenodd">
        <g id="icon_" transform="translate(-1.000000, -1.000000)" stroke="#1B9C20" stroke-width="0.5" fill="#1B9C20">
            <g id="icon_retailer_crofarm" transform="translate(1.000000, 2.000000)">
                <path d="M2.54754533,5.89473684 C3.72002069,5.89473684 4.67049978,4.95217842 4.67049978,3.78947368 C4.67049978,3.55693274 4.48040396,3.36842105 4.24590889,3.36842105 C4.01141382,3.36842105 3.821318,3.55693274 3.821318,3.78947368 C3.821318,4.48709652 3.25103055,5.05263158 2.54754533,5.05263158 C1.84406012,5.05263158 1.27377267,4.48709652 1.27377267,3.78947368 C1.27377267,3.55693274 1.08367685,3.36842105 0.849181778,3.36842105 C0.614686705,3.36842105 0.424590889,3.55693274 0.424590889,3.78947368 C0.424590889,4.95217842 1.37506997,5.89473684 2.54754533,5.89473684 L2.54754533,5.89473684 Z" id="Shape"></path>
                <path d="M2.11027722,0.523172895 C2.16715063,0.297575039 2.02883561,0.0689710429 1.80134197,0.0125715789 C1.57384834,-0.0438278851 1.3433233,0.093334512 1.28644989,0.318932368 L0.437268111,3.68735342 C0.380394702,3.91295128 0.518709725,4.14155528 0.746203361,4.19795474 C0.973696996,4.2543542 1.20422204,4.11719181 1.26109544,3.89159395 L2.11027722,0.523172895 L2.11027722,0.523172895 Z" id="Shape"></path>
                <path d="M5.09181193,0.473277783 C5.12089745,0.242532546 4.95584807,0.032094575 4.7231638,0.00325142033 C4.49047953,-0.0255917343 4.27827317,0.138082243 4.24918763,0.36882748 L3.82459674,3.73724853 C3.79551121,3.96799377 3.9605606,4.17843174 4.19324487,4.2072749 C4.42592914,4.23611805 4.6381355,4.07244408 4.66722104,3.84169884 L5.09181193,0.473277783 L5.09181193,0.473277783 Z" id="Shape"></path>
                <path d="M14.4328114,0.36882748 C14.403726,0.138082243 14.1915196,-0.0255917343 13.9588353,0.00325142033 C13.7261511,0.032094575 13.5611016,0.242532546 13.5901872,0.473277783 L14.0147781,3.84169884 C14.0438636,4.07244408 14.25607,4.23611805 14.4887543,4.2072749 C14.7214385,4.17843174 14.8864879,3.96799377 14.8574023,3.73724853 L14.4328114,0.36882748 L14.4328114,0.36882748 Z" id="Shape"></path>
                <path d="M17.3955493,0.318932368 C17.3386758,0.093334512 17.1081507,-0.0438278851 16.8806572,0.0125715789 C16.6531635,0.0689710429 16.5148485,0.297575039 16.5717219,0.523172895 L17.4209036,3.89159395 C17.4777771,4.11719181 17.7083022,4.2543542 17.9357957,4.19795474 C18.1632894,4.14155528 18.3016044,3.91295128 18.244731,3.68735342 L17.3955493,0.318932368 L17.3955493,0.318932368 Z" id="Shape"></path>
                <path d="M5.94427245,5.89473684 C7.11674781,5.89473684 8.06722689,4.95217842 8.06722689,3.78947368 C8.06722689,3.55693274 7.87713107,3.36842105 7.642636,3.36842105 C7.40814093,3.36842105 7.21804511,3.55693274 7.21804511,3.78947368 C7.21804511,4.48709652 6.64775766,5.05263158 5.94427245,5.05263158 C5.24078723,5.05263158 4.67049978,4.48709652 4.67049978,3.78947368 C4.67049978,3.55693274 4.48040396,3.36842105 4.24590889,3.36842105 C4.01141382,3.36842105 3.821318,3.55693274 3.821318,3.78947368 C3.821318,4.95217842 4.77179709,5.89473684 5.94427245,5.89473684 L5.94427245,5.89473684 Z" id="Shape"></path>
                <path d="M9.34099956,5.89473684 C10.5134749,5.89473684 11.463954,4.95217842 11.463954,3.78947368 C11.463954,3.55693274 11.2738582,3.36842105 11.0393631,3.36842105 C10.804868,3.36842105 10.6147722,3.55693274 10.6147722,3.78947368 C10.6147722,4.48709652 10.0444848,5.05263158 9.34099956,5.05263158 C8.63751436,5.05263158 8.06722689,4.48709652 8.06722689,3.78947368 C8.06722689,3.55693274 7.87713107,3.36842105 7.642636,3.36842105 C7.40814093,3.36842105 7.21804511,3.55693274 7.21804511,3.78947368 C7.21804511,4.95217842 8.1685242,5.89473684 9.34099956,5.89473684 L9.34099956,5.89473684 Z" id="Shape"></path>
                <path d="M12.7377267,5.89473684 C13.9102021,5.89473684 14.8606811,4.95217842 14.8606811,3.78947368 C14.8606811,3.55693274 14.6705853,3.36842105 14.4360902,3.36842105 C14.2015951,3.36842105 14.0114993,3.55693274 14.0114993,3.78947368 C14.0114993,4.48709652 13.4412119,5.05263158 12.7377267,5.05263158 C12.0342415,5.05263158 11.463954,4.48709652 11.463954,3.78947368 C11.463954,3.55693274 11.2738582,3.36842105 11.0393631,3.36842105 C10.804868,3.36842105 10.6147722,3.55693274 10.6147722,3.78947368 C10.6147722,4.95217842 11.5652513,5.89473684 12.7377267,5.89473684 L12.7377267,5.89473684 Z" id="Shape"></path>
                <path d="M16.1344538,5.89473684 C17.3069292,5.89473684 18.2574082,4.95217842 18.2574082,3.78947368 C18.2574082,3.55693274 18.0673124,3.36842105 17.8328173,3.36842105 C17.5983222,3.36842105 17.4082264,3.55693274 17.4082264,3.78947368 C17.4082264,4.48709652 16.837939,5.05263158 16.1344538,5.05263158 C15.4309686,5.05263158 14.8606811,4.48709652 14.8606811,3.78947368 C14.8606811,3.55693274 14.6705853,3.36842105 14.4360902,3.36842105 C14.2015951,3.36842105 14.0114993,3.55693274 14.0114993,3.78947368 C14.0114993,4.95217842 14.9619784,5.89473684 16.1344538,5.89473684 L16.1344538,5.89473684 Z" id="Shape"></path>
                <path d="M16.9766688,0 L1.70533033,0 C1.46698762,0 1.27377267,0.1953125 1.27377267,0.421052632 C1.27377267,0.653593579 1.46621012,0.842105263 1.70533033,0.842105263 L16.9766688,0.842105263 C17.2150115,0.842105263 17.4082264,0.646792763 17.4082264,0.421052632 C17.4082264,0.188511684 17.215789,0 16.9766688,0 L16.9766688,0 Z" id="Shape"></path>
                <path d="M17.4082264,15.159156 C17.4082264,15.6235413 17.0253088,16 16.5634849,16 L2.11851422,16 C1.65197634,16 1.27377267,15.6231668 1.27377267,15.159156 L1.27377267,5.05263158 L2.12295444,5.05263158 L2.12295444,15.1578947 L16.5590447,15.1578947 L16.5590447,5.05263158 L17.4082264,5.05263158 L17.4082264,15.159156 L17.4082264,15.159156 Z" id="Shape"></path>
                <polygon id="Shape" points="13.9643226 16 14.8135043 16 14.8135043 7.57894737 9.71841368 7.57894737 9.71841368 16 10.5675955 16 10.5675955 8.42105263 13.9643226 8.42105263"></polygon>
                <rect id="Rectangle-path" x="7.21804511" y="0" width="0.849181778" height="4.21052632"></rect>
                <rect id="Rectangle-path" x="10.6147722" y="0" width="0.849181778" height="4.21052632"></rect>
                <path d="M3.86849477,7.57894737 L8.11440366,7.57894737 L8.11440366,12.6315789 L3.86849477,12.6315789 L3.86849477,7.57894737 L3.86849477,7.57894737 Z M4.47505318,8.42105263 L7.50784524,8.42105263 L7.50784524,11.7894737 L4.47505318,11.7894737 L4.47505318,8.42105263 L4.47505318,8.42105263 Z" id="Shape"></path>
            </g>
        </g>
    </g>
</svg>