<?xml version="1.0" encoding="UTF-8" standalone="no"?>
<svg width="13px" height="18px" viewBox="0 0 13 18" version="1.1" xmlns="http://www.w3.org/2000/svg" xmlns:xlink="http://www.w3.org/1999/xlink">
    <!-- Generator: sketchtool 39.1 (31720) - http://www.bohemiancoding.com/sketch -->
    <title>43B1F0FD-9EDE-46D6-A7DC-7393955C46EC</title>
    <desc>Created with sketchtool.</desc>
    <defs></defs>
    <g id="Welcome" stroke="none" stroke-width="1" fill="none" fill-rule="evenodd">
        <g id="Farmer-onboarding-form_website" transform="translate(-1152.000000, -22.000000)">
            <g id="icon-phone" transform="translate(1140.000000, 13.000000)">
                <g>
                    <rect id="Rectangle-3-Copy" x="0" y="0" width="36" height="36"></rect>
                    <g id="Icon-Copy" transform="translate(12.000000, 9.000000)" fill="#1A9C20">
                        <path d="M1.21048714,16.2 C1.33627755,16.2 1.43572604,16.2383839 1.50571746,16.2904282 C1.53173181,16.309772 1.54262144,16.3217602 1.54675717,16.3279527 C1.54477602,16.3249863 1.54297286,12.6614571 1.54297286,12.6614571 L1.54297286,0.983571429 C1.54297286,1.21160055 1.37736038,1.444548 1.15148023,1.52451875 C1.10947663,1.53938973 1.08652308,1.54328952 1.07497272,1.54405773 C1.09124819,1.54297526 1.11468612,1.54265582 1.17661719,1.54280408 C1.19289561,1.54284316 1.19289561,1.54284316 1.21048714,1.54285714 L11.1580586,1.54285714 C11.1756285,1.54284315 11.1756285,1.54284315 11.1917847,1.54280404 C11.2511314,1.54266052 11.2729197,1.54296743 11.2857923,1.54386981 C11.2657393,1.54246408 11.2343984,1.53675556 11.183582,1.51717905 C10.9496606,1.42706317 10.8001157,1.19243476 10.8001157,0.983571429 L10.8001157,16.3735714 C10.7999982,16.3416628 10.8141729,16.3249999 10.8449185,16.3010355 C10.9202387,16.2423278 11.0271432,16.2 11.1580586,16.2 L1.21048714,16.2 Z M12.3429729,16.3735714 L12.3429729,0.983571429 C12.3429729,0.574136721 12.120199,0.224615675 11.7382187,0.0774616007 C11.5535307,0.00631241979 11.4536284,-0.000690827106 11.1880537,-4.85953437e-05 C11.172557,-1.14310146e-05 1.21048714,2.57107839e-14 1.21048714,2.57107839e-14 C0.920697701,-0.000670152022 0.817047805,0.00622356254 0.636564708,0.0701219056 C0.247934572,0.20771275 0.000115714286,0.556290181 0.000115714286,0.983571429 L0.000115714286,12.6614571 L0.000115714286,16.3735714 C0.000115714286,17.0028083 0.494362622,17.7428571 1.21048714,17.7428571 L11.1580586,17.7428571 C11.8893049,17.7428571 12.3429729,17.0057564 12.3429729,16.3735714 Z" id="Stroke-180"></path>
                        <polygon id="Stroke-182" points="11.5714286 13.1142857 11.5714286 11.5714286 0.771428571 11.5714286 0.771428571 13.1142857"></polygon>
                        <polygon id="Stroke-184" points="0.771428571 2.7 0.771428571 4.24285714 11.5714286 4.24285714 11.5714286 2.7"></polygon>
                        <path d="M6.11519143,13.6285971 C5.65734857,13.6285971 5.28629143,13.9738114 5.28629143,14.4000257 C5.28629143,14.8258543 5.65734857,15.1714543 6.11519143,15.1714543 C6.57303429,15.1714543 6.94409143,14.8258543 6.94409143,14.4000257 C6.94409143,13.9738114 6.57303429,13.6285971 6.11519143,13.6285971" id="Fill-186"></path>
                    </g>
                </g>
            </g>
        </g>
    </g>
</svg>