<?xml version="1.0" encoding="UTF-8" standalone="no"?>
<svg width="130px" height="44px" viewBox="0 0 130 44" version="1.1" xmlns="http://www.w3.org/2000/svg" xmlns:xlink="http://www.w3.org/1999/xlink">
    <!-- Generator: sketchtool 3.8.2 (29753) - http://www.bohemiancoding.com/sketch -->
    <title>E576826D-886D-4034-BF57-6C3882C994F3</title>
    <desc>Created with sketchtool.</desc>
    <defs>
        <polygon id="path-1" points="54.3425463 20.1650943 0.0369055817 20.1650943 0.0369055817 0.394135935 54.3425463 0.394135935 108.648187 0.394135935 108.648187 20.1650943 54.3425463 20.1650943"></polygon>
    </defs>
    <g id="Page-1" stroke="none" stroke-width="1" fill="none" fill-rule="evenodd">
        <g id="Desktop-|-Home" transform="translate(-1073.000000, -1038.000000)">
            <g id="logo_metro-copy" transform="translate(1073.948438, 1038.811321)">
                <rect id="Rectangle-29" fill="#1A3C7B" x="0" y="0" width="128.462286" height="43.0188679"></rect>
                <g id="Metro-Group-01" transform="translate(9.367042, 10.754717)">
                    <g id="Group-3">
                        <mask id="mask-2" fill="white">
                            <use xlink:href="#path-1"></use>
                        </mask>
                        <g id="Clip-2"></g>
                        <path d="M14.4860559,20.1650943 L18.652081,7.75011792 L18.652081,20.1650943 L24.8694413,20.1650943 L24.8694413,0.400246569 L16.4758818,0.400246569 L12.4347206,10.282976 L8.39355945,0.400246569 L0,0.400246569 L0,20.1650943 L6.21736032,20.1650943 L6.21736032,7.75011792 L10.413525,20.1650943 L14.4860559,20.1650943 L14.4860559,20.1650943 Z M81.3042266,12.4815823 C83.2436149,12.3275943 85.1774674,11.0156411 85.1774674,8.86164237 L85.1774674,3.9823006 C84.9523433,1.75497427 83.270679,0.552401372 81.2765474,0.394135935 L65.2816683,0.394135935 L65.2822834,20.1650943 L71.4996437,20.1650943 L71.4996437,12.4815823 L73.974163,12.4815823 L78.0153241,20.1650943 L85.1651655,20.1650943 L80.3526777,12.4815823 L81.3042266,12.4815823 L81.3042266,12.4815823 Z M79.5819661,7.35475986 C79.5819661,7.78250429 79.4749399,8.15769726 78.7023831,8.15769726 L71.4996437,8.15769726 L71.4996437,4.27805532 L78.7116095,4.27805532 C79.5887321,4.27805532 79.5819661,4.84878859 79.5819661,5.20442753 L79.5819661,7.35475986 L79.5819661,7.35475986 Z M43.5215223,4.29149871 L43.5215223,0.400246569 L27.3562624,0.400246569 L27.3562624,20.1650943 L43.7361897,20.1608169 L43.7423407,16.2738422 L33.589,16.2738422 L33.5902302,12.0410056 L43.5215223,12.0410056 L43.5215223,8.15953045 L33.5902302,8.15953045 L33.5902302,4.29149871 L43.5215223,4.29149871 L43.5215223,4.29149871 Z M51.2932227,4.29149871 L45.3864843,4.29149871 L45.3864843,0.400246569 L63.4167062,0.400246569 L63.4167062,4.29149871 L57.510583,4.29149871 L57.510583,20.1650943 L51.2932227,20.1650943 L51.2932227,4.29149871 L51.2932227,4.29149871 Z M104.762029,0.400246569 L91.5504462,0.400246569 C89.565541,0.559734134 87.8881823,1.55943396 87.6649036,3.79714837 L87.6649036,16.5830403 C87.8881823,18.8207547 89.565541,20.0062178 91.5504462,20.1650943 L104.762029,20.1650943 C106.74755,20.0062178 108.424293,18.8207547 108.648187,16.5830403 L108.648187,3.79714837 C108.424293,1.55943396 106.74755,0.559734134 104.762029,0.400246569 L104.762029,0.400246569 Z M102.430827,15.3908555 C102.402533,15.6132826 102.31765,16.1980703 101.551244,16.2738422 L94.8172053,16.2738422 C94.0507994,16.1980703 93.9105582,15.6132826 93.8816488,15.3908555 L93.8816488,5.06388293 C93.9105582,4.84084477 94.0163542,4.36727058 94.7833752,4.29149871 L101.554319,4.29149871 C102.320725,4.36727058 102.402533,4.84084477 102.430827,5.06388293 L102.430827,15.3908555 L102.430827,15.3908555 Z" id="Fill-1" fill="#F8E506" mask="url(#mask-2)"></path>
                    </g>
                </g>
            </g>
        </g>
    </g>
</svg>