<?xml version="1.0" encoding="UTF-8" standalone="no"?>
<svg width="118px" height="79px" viewBox="0 0 118 79" version="1.1" xmlns="http://www.w3.org/2000/svg" xmlns:xlink="http://www.w3.org/1999/xlink">
    <!-- Generator: sketchtool 3.8.2 (29753) - http://www.bohemiancoding.com/sketch -->
    <title>70B0CE8E-1ACC-4454-9EA9-9BB429E4DA4C</title>
    <desc>Created with sketchtool.</desc>
    <defs>
        <polygon id="path-1" points="0 0.190074946 0 3.200401 116.98484 3.200401 116.98484 0.190074946 2.1719466e-21 0.190074946"></polygon>
        <polygon id="path-3" points="2.24365921 59.5571653 2.24365921 0.223799479 0.01903615 0.223799479 0.01903615 59.5571653 2.24365921 59.5571653"></polygon>
        <polygon id="path-5" points="0.278807359 2.89895699 115.0176 2.89895699 115.0176 0.131739174 0.278807359 0.131739174 0.278807359 2.89895699"></polygon>
    </defs>
    <g id="Page-1" stroke="none" stroke-width="1" fill="none" fill-rule="evenodd">
        <g id="Desktop-|-Home" transform="translate(-664.000000, -1029.000000)">
            <g id="logo_jubilant_foodworks-copy" transform="translate(664.153125, 1029.000000)">
                <polygon id="Fill-1" fill="#FFFFFF" points="0.397191785 18.9423003 1.09016196 51.4193155 1.25811588 77.8545821 56.8293878 76.6444286 92.8365925 76.3448697 115.691146 77.8545821 115.167092 43.2629389 116.553993 19.2447582 104.427977 20.3898462 58.5627748 20.7573695"></polygon>
                <g id="Group-65" transform="translate(0.000000, 0.016750)">
                    <g id="Group-4" transform="translate(0.000000, 18.360061)">
                        <mask id="mask-2" fill="white">
                            <use xlink:href="#path-1"></use>
                        </mask>
                        <g id="Clip-3"></g>
                        <path d="M0.58636431,0.190074946 C16.1765906,2.0293021 108.632017,2.2480123 116.98484,0.8896899 C113.058437,3.27424307 81.8834328,3.2500851 60.2356471,3.17986592 C38.5904256,3.10417093 17.1522619,2.80171309 1.94602179,1.72136845 C0.486681736,1.58093009 -0.783870425,0.449370544 0.58636431,0.190074946" id="Fill-2" fill="#80CD3D" mask="url(#mask-2)"></path>
                    </g>
                    <g id="Group-7" transform="translate(114.747143, 19.004274)">
                        <mask id="mask-4" fill="white">
                            <use xlink:href="#path-3"></use>
                        </mask>
                        <g id="Clip-6"></g>
                        <path d="M1.19821018,59.4546444 C0.77351754,55.9977993 1.738291,2.08460776 2.24375537,0.223799479 C1.17128627,1.44200563 0.268373694,7.82647523 0.0911246164,12.6419649 C-0.091893871,17.4519788 0.080226843,55.6412276 0.531843391,58.992744 C0.563895665,59.3167829 1.10397649,59.7600012 1.19821018,59.4546444" id="Fill-5" fill="#80CD3D" mask="url(#mask-4)"></path>
                    </g>
                    <path d="M1.17410687,78.458918 C1.59944055,75.0020729 0.633384996,21.0888813 0.124394877,19.2280731 C1.20038973,20.4462792 2.09817394,26.8307488 2.27638459,31.6462385 C2.46549301,36.4562523 2.2920902,74.6455012 1.84079418,77.9970175 C1.80906242,78.3210565 1.26866108,78.7642748 1.17410687,78.458918" id="Fill-8" fill="#80CD3D"></path>
                    <g id="Group-12" transform="translate(1.282091, 75.694988)">
                        <mask id="mask-6" fill="white">
                            <use xlink:href="#path-5"></use>
                        </mask>
                        <g id="Clip-11"></g>
                        <path d="M0.852526397,2.75310724 C16.0529971,1.03016047 106.866386,1.51621893 115.0176,2.89902141 C111.182545,0.533150401 80.1662001,0.184631349 59.0370203,0.13889225 C37.9104046,0.0902541942 17.0043086,0.271277953 2.16474651,1.25434648 C0.752843823,1.38641007 -0.485976586,2.48833584 0.852526397,2.75310724" id="Fill-10" fill="#80CD3D" mask="url(#mask-6)"></path>
                    </g>
                    <path d="M23.2264243,3.67423472 C23.2264243,3.67423472 37.5079562,-0.822691782 47.4704442,2.22926571 C55.7075582,4.75457936 57.0835624,6.48042508 57.0835624,6.48042508 C57.0835624,6.48042508 62.6414268,3.13953821 67.2611211,2.63447548 C71.8811359,2.12941275 82.5664027,-1.30069758 93.0398039,2.2643753 C87.9200941,12.7489364 84.740829,23.4737888 79.1076417,47.9429185 C67.8845378,44.9205947 38.7361994,45.0178709 32.3129236,46.7301881 C30.4074159,39.9701425 22.4013987,6.13190603 22.1029921,4.31715896 L23.2264243,3.67423472" id="Fill-13" fill="#FFFFFF"></path>
                    <path d="M60.026474,9.8320381 C61.3380531,9.74829045 62.5499496,10.4450064 63.0445162,11.5633596 C63.1816999,11.876447 64.5093051,12.3654044 64.4554573,13.1162343 C64.4150714,13.7266258 62.4775114,14.590837 61.4133759,16.9241753 C61.316578,17.1161507 61.1120845,17.2968523 61.0556725,18.5340628 C60.9508616,19.0958162 60.5399514,20.2760138 60.1796839,21.1292735 C59.0671494,23.2873859 59.2767713,25.0103327 58.9030418,25.550505 C58.25815,26.474306 57.7366595,26.2607495 57.6023605,26.0610435 C57.3228646,25.6828907 56.876697,25.701895 56.6994479,25.3102137 C56.651049,25.1887796 56.672524,24.005683 56.672524,24.1947594 C56.6779729,24.0543211 56.693999,23.9113059 56.7048968,23.7679686 C56.7048968,23.6223765 56.7100251,23.4764623 56.7100251,23.3305482 C56.7558599,22.9253384 56.8337469,22.536556 56.8712481,22.1287694 C56.898172,21.8749496 56.8875948,21.5992266 56.8875948,21.3293015 C56.898172,21.19144 56.9036209,21.0564774 56.9090698,20.9160391 C56.9036209,20.8026577 56.8927231,20.6918531 56.8712481,20.5865243 C56.8497731,20.4921472 56.8311827,20.3974479 56.8042588,20.3001718 C56.771886,20.1516808 56.7558599,20.0006129 56.7234871,19.8517998 C56.6831012,19.6385654 56.6132273,19.4359605 56.594637,19.2117745 C56.5782903,19.0442792 56.6401512,18.9147924 56.6564979,18.7582488 C56.6616262,18.4909005 56.6241251,18.2367586 56.6241251,17.9694104 L56.6241251,17.5158846 C56.6241251,17.4105559 56.6401512,17.3103808 56.6186762,17.2105278 C56.6000858,17.108098 56.5353403,16.9998703 56.4949544,16.9054931 C56.4250804,16.7650548 56.4036054,16.6030353 56.3526423,16.4542222 C56.3151411,16.4004304 56.2882172,16.3437397 56.2532802,16.2896258 C56.1888552,16.1813981 56.1269943,16.0709156 56.0785953,15.9520584 C55.9792333,15.7033923 55.6215299,14.9122992 55.5006928,14.4880851 C55.355496,13.9723929 56.2048813,13.7050446 56.6885501,13.0566446 C57.1751037,12.4085666 57.4007517,10.007586 60.026474,9.8320381" id="Fill-15" fill="#FBC706"></path>
                    <path d="M45.497819,8.31420864 C46.5943273,8.46269966 49.9322512,9.73212071 50.9723475,10.4101545 C51.1255574,10.5100075 51.3137042,10.5937552 51.4614652,10.7177661 C51.7650002,10.9583795 52.0794331,11.196094 52.3698267,11.4579664 C52.5416269,11.6254617 52.7111834,11.8010097 52.8829836,11.9681829 C53.0525401,12.1221497 53.2512642,12.2278006 53.4285133,12.3733926 C53.4769122,12.4329823 53.5333242,12.4951488 53.587172,12.5544164 C53.7538439,12.7219117 53.917631,12.886508 54.0548147,13.0704307 C54.1490484,13.2053933 54.2160377,13.361937 54.2887963,13.4997985 C54.3423236,13.5835461 54.4016203,13.658919 54.4471346,13.7400898 C54.5009824,13.8183616 54.5304705,13.9156378 54.5897672,13.9968085 C54.6407303,14.083133 54.6997065,14.1694575 54.7509901,14.258681 C54.7993891,14.3450055 54.847788,14.43133 54.8878533,14.5125008 C54.9525989,14.6097769 55.0195882,14.6935245 55.0814491,14.7853248 C55.1407458,14.8987063 55.1888242,15.0120877 55.2401078,15.1254691 C55.2885068,15.2172694 55.3663938,15.2929644 55.411908,15.3876637 C55.4766536,15.5361547 55.5141548,15.6901215 55.5705668,15.8492421 C55.608068,15.951994 55.6699288,16.0466932 55.7128789,16.1491231 C55.7587136,16.3030899 55.8016637,16.4570567 55.8500626,16.6055477 C55.8849996,16.6947712 55.9173724,16.7785188 55.9548736,16.8677423 C56.0007083,17.0188102 56.0221833,17.1863054 56.0596845,17.3457481 C56.0840442,17.4265968 56.1055193,17.5048686 56.1269943,17.5860394 C56.1484693,17.6858924 56.1644954,17.7857453 56.1805216,17.8910741 C56.2154586,18.0450409 56.2747553,18.2019067 56.3096922,18.3555514 C56.3311673,18.4908361 56.342065,18.6232218 56.3686684,18.7552854 C56.3955923,18.8957238 56.468351,19.0226336 56.4949544,19.1604952 C56.511301,19.2551944 56.5218783,19.3550474 56.5353403,19.4523235 C56.5622642,19.6198188 56.616112,19.7737856 56.651049,19.9303293 C56.672524,20.059816 56.6885501,20.1867259 56.7100251,20.3165348 C56.7423979,20.4569731 56.7933611,20.5919357 56.8042588,20.7459025 C56.8311827,20.9404547 56.79881,21.132108 56.79881,21.3292371 C56.7933611,21.4886797 56.6831012,22.8038399 56.616112,23.3304837 C56.616112,23.3440122 56.5731619,24.3567145 56.5731619,24.7161852 C56.3526423,25.7775255 57.4866518,25.8883301 57.5539615,26.3041694 C57.2071559,25.1697109 58.9084907,27.8029301 54.3153997,29.029189 C51.2704336,30.4065156 50.2008492,30.2635004 49.986099,30.2068097 C47.3494789,29.4720852 45.8552019,26.711956 45.3606353,26.0770844 C45.5462179,26.3147989 44.6782424,25.6721968 44.7102946,24.5567425 C44.7481163,23.473821 45.6186561,22.8202673 45.8875747,22.6176624 C46.5433642,21.58048 44.1272638,21.2941275 41.5390426,18.3719789 C40.8726758,17.61825 40.6066419,15.9329897 42.9044695,15.2633306 C43.0951805,14.6719434 39.2091628,13.5835461 38.2011187,10.7312946 C37.3815421,8.43048903 39.141853,6.99614953 45.497819,8.31420864" id="Fill-17" fill="#66CEF6"></path>
                    <path d="M80.8116047,4.6059917 C81.2253996,5.38097954 79.7824062,7.73879789 74.5174996,13.5322024 C74.5498724,13.4941938 72.8645638,15.8143257 72.3863439,16.5351997 C71.9106881,17.2592947 71.9456251,18.5499748 70.8760407,20.3811493 C71.7036304,18.9712899 70.1154402,21.5181847 65.5572863,25.8044536 C64.6489248,26.6606123 57.4599202,34.660123 58.000001,29.4397457 C58.021476,29.1885027 58.3762947,28.7997204 58.5240557,28.1326382 C58.6827144,27.4304464 57.9945521,27.0819273 58.8035515,25.6910722 C58.8493863,25.6289057 59.4487638,24.8700232 59.3439529,23.7867796 C60.0882067,20.5811773 60.698482,20.0165249 60.9536181,19.7736568 C61.7840925,18.9902942 61.149778,18.5583496 63.3158707,16.15447 C67.7932529,11.1634324 68.7179611,11.3148224 72.9642464,6.98281433 C77.2050828,2.65338312 79.7824062,2.6830169 80.8116047,4.6059917" id="Fill-19" fill="#80CD3D"></path>
                    <path d="M41.6331481,11.2931446 C42.7081814,9.96960971 45.1457568,9.64557074 47.6907074,9.84559877 C50.5315005,10.0697848 53.1543381,11.2419297 54.7293869,12.9352427 C57.80929,16.2626011 57.605117,21.3183821 57.0647156,24.8132358 C59.1689474,20.9592335 57.725954,16.8784684 61.6953077,13.9775788 C61.9209557,13.8155593 62.4398821,14.3396263 62.2837875,14.5096985 C60.0372436,16.9808982 60.1930176,22.0585825 57.4220985,25.8394666 C57.3656865,25.9232142 56.8390676,25.5263792 56.8980438,25.3588839 C56.7666295,25.7019272 56.4653381,25.5775941 56.2047531,25.4210505 C55.9896823,25.2938185 55.8149974,25.107641 55.8742941,24.7375408 C56.5246348,20.1597656 55.8149974,15.7333804 52.0148798,12.7406905 C50.8459333,11.8223653 48.0884761,10.9662067 45.4172396,11.1256493 C44.3986183,11.185239 43.527758,11.3498353 43.0440892,11.8494223 C42.1222658,12.7922275 47.4112116,14.3451021 47.4541616,15.7575384 C47.4919833,17.0324353 45.5380767,17.2079832 45.4063418,17.6508794 C45.2345416,18.2638478 50.2090546,19.5332688 50.1471937,20.8645343 C50.1042437,22.0099444 48.4567568,22.3230318 48.4083578,22.8065134 C48.3141242,23.8356431 50.2196319,24.1651579 51.3969119,27.3681832 C51.4183869,27.4409793 51.3805653,27.8812986 51.1978673,27.9650463 C51.0446574,28.0378423 50.4885505,27.6194262 50.2625819,27.3330736 C48.2577122,24.7645978 46.6185588,24.9024593 46.677535,23.7976345 C46.7393959,22.4744217 48.2740588,21.8343965 48.8250374,21.1673142 C47.9327021,19.7142926 43.5655797,19.0336819 43.9793746,17.3429458 C44.2992563,16.0194108 45.7585963,16.08963 45.8416117,15.5794136 C45.9063573,15.1903091 44.6781141,14.6826696 43.4902569,14.0020589 C42.1466255,13.2267489 40.8565215,12.2465794 41.6331481,11.2931446" id="Fill-21" fill="#254AA5"></path>
                    <path d="M60.875699,17.3537041 C61.3943048,16.5542362 63.8049564,13.7751028 68.2986853,10.4451675 C69.9513005,9.22148555 74.7754884,5.4190203 77.1217149,6.80987544 C78.5166298,7.63897714 73.1574895,12.1816427 72.466763,12.9218431 C72.0558529,13.3483119 71.5827613,15.2416529 70.6285651,16.5867689 C69.5051329,18.1557489 62.4452989,26.1961671 59.6259808,28.2621571 C59.3224458,28.4808673 58.9487163,28.7266345 58.7929422,28.6213057 C58.7445433,28.5890951 58.8439053,28.48892 58.7336455,28.4135471 C58.6666562,28.3674859 58.6342834,28.5269286 58.4865225,28.3649091 C58.3358768,28.1838853 58.7176194,27.6111802 58.9326901,27.2980929 C59.6904059,26.1691102 68.0137405,18.3367726 68.3227245,17.1646277 C68.640042,15.9870069 69.4166686,14.1071944 73.5366679,10.507334 C75.3049919,8.96251205 76.6216994,7.75783437 76.0306554,7.45279968 C75.7617368,7.31493817 74.9421602,7.44184806 73.8132791,8.11150713 C71.7894985,9.310709 69.0269129,11.5335648 68.4089451,11.9603557 C67.4521847,12.6190631 63.5523844,16.5919226 62.3914511,17.5994712 C61.7949582,18.1261151 61.2789166,18.3989392 60.9965361,18.3557769 C60.9186491,18.3448253 60.9186491,18.2233912 60.8596729,18.180229 C60.8032609,18.1315909 60.6606282,18.1721763 60.628576,18.0855297 C60.593639,17.9399376 60.7090272,17.632004 60.875699,17.3537041" id="Fill-23" fill="#254AA5"></path>
                    <path d="M59.9055087,12.7299643 C60.7709201,12.7299643 60.6497625,13.8479954 59.8167239,13.8479954 C59.1609344,13.8425196 59.233693,12.7299643 59.9055087,12.7299643" id="Fill-25" fill="#254AA5"></path>
                    <path d="M58.0323097,13.8102768 C58.0996195,13.5699854 58.6880992,12.1978125 59.7685814,12.235821 C60.88368,12.2735075 60.9349637,12.6651888 61.1391366,12.9405897 C61.5503673,13.4727093 62.4721907,13.7751672 62.7731616,13.7751672 C63.0661194,13.7751672 63.0042585,13.4727093 62.8670748,13.2134137 C62.686941,12.8784232 62.4936658,12.6867699 62.3375712,12.5543842 C62.1952591,12.4410028 62.1119232,11.1258426 60.4778982,11.0176149 C59.5535106,10.9583473 58.0162835,11.5928968 57.8441628,13.7239523 C57.8281367,13.9317109 57.8736509,14.1072588 58.0323097,13.8102768" id="Fill-27" fill="#254AA5"></path>
                    <path d="M22.9147159,3.35286923 C29.9748704,-1.2168533 50.1043398,-0.617413417 57.3334098,6.78555641 C53.5845758,3.95778492 35.2288793,-0.814542492 22.3797635,4.16296666 L22.9147159,3.35286923" id="Fill-29" fill="#80CD3D"></path>
                    <path d="M57.5915909,6.27778799 C60.3006491,2.34261493 80.308961,-2.46482207 93.0587147,2.27529471 C76.793788,-1.45727347 62.278595,5.74019252 57.5915909,6.27778799" id="Fill-31" fill="#80CD3D"></path>
                    <path d="M32.5225455,46.3979354 C31.6786091,43.7080255 30.5282529,37.6121631 28.6390919,28.7780749 C26.3492774,18.0802794 22.3449867,6.20228626 22.1244671,3.99038208 C20.5173661,10.8528575 25.4194409,18.6716666 27.4996335,29.1130654 C28.9695508,36.4886562 29.7785502,46.3302931 32.3853617,47.4402715 C33.2267339,47.7968432 34.5274152,47.8535339 35.8040573,47.6402996 C47.3467224,45.7228006 69.8384445,45.5256715 79.2743136,48.4532959 C80.3788349,41.9931313 91.5535399,5.00308439 93.0587147,2.27806482 C86.734801,12.1654408 80.9807766,35.4353685 78.8390437,47.6754091 C66.6216782,43.5054206 40.9208824,44.615399 32.5225455,46.3979354" id="Fill-33" fill="#80CD3D"></path>
                    <path d="M38.0588066,32.4834895 C37.8491847,32.5050706 37.6395629,32.5185991 37.4408388,32.5185991 C37.2712822,32.5185991 37.078007,32.5050706 36.8683851,32.4834895 C36.8251146,32.4834895 36.7767156,32.4780137 36.7366503,32.469961 L35.1885254,40.0455798 C34.9359535,41.2853671 34.7208828,42.0819361 34.540749,42.4249793 C34.3634999,42.7734984 34.1269541,43.005737 33.8179702,43.1220174 L33.8958572,43.653815 C34.6888305,43.5027471 35.2878875,43.1220174 35.696554,42.5303081 C36.1103489,41.9308682 36.4892067,40.7506706 36.8520385,38.9897153 L37.9539957,33.5718868 C38.0049588,33.2990627 38.0911794,33.0993568 38.1905415,32.9750237 C38.2953524,32.8535896 38.4485623,32.7804715 38.6367091,32.7563135 L38.7036984,32.397165 C38.4889481,32.4374283 38.2684285,32.4644852 38.0588066,32.4834895" id="Fill-35" fill="#254AA5"></path>
                    <path d="M45.3499939,32.4510856 C45.3176211,32.4510856 45.2826841,32.4591382 45.245183,32.4620372 C45.0355611,32.4755657 44.8259392,32.4836183 44.6243304,32.4836183 C44.4201574,32.4836183 44.2159844,32.4755657 44.0114909,32.4620372 C43.8018691,32.4456098 43.603145,32.4240286 43.3906384,32.3969717 L43.3342264,32.6507915 C43.5172449,32.66432 43.6435308,32.7213328 43.702507,32.8131331 C43.7643679,32.9049334 43.7752657,33.0479486 43.737444,33.2425008 L43.0925522,36.3778839 C42.9313293,37.1773518 42.7351694,37.7039956 42.4931747,37.9607144 C42.2486158,38.2119573 41.8857841,38.3414441 41.3966664,38.3414441 C40.9101129,38.3414441 40.5931159,38.2119573 40.4588168,37.9552386 C40.3216331,37.7014188 40.327082,37.1747749 40.4883049,36.3778839 L41.2864066,32.4510856 C41.2514696,32.4510856 41.2085195,32.4591382 41.1710184,32.4620372 C40.9559476,32.4755657 40.756903,32.4836183 40.5581789,32.4836183 C40.3594548,32.4836183 40.157846,32.4755657 39.9533525,32.4620372 C39.7546284,32.4456098 39.5450065,32.4240286 39.3353846,32.3969717 L39.2815368,32.6536905 C39.4696836,32.6697958 39.5905207,32.7239096 39.6498174,32.8131331 C39.7116783,32.9049334 39.7171272,33.0479486 39.6821902,33.2425008 L39.0558888,36.3211932 C38.8302408,37.4311716 38.8786397,38.2010057 39.2090987,38.6303734 C39.5289804,39.0626401 40.200796,39.2787735 41.2139684,39.2787735 C42.2271408,39.2787735 42.9768435,39.0626401 43.4823079,38.6303734 C43.9848876,38.2010057 44.3473988,37.4311716 44.5788162,36.3211932 L45.3499939,32.4510856" id="Fill-37" fill="#254AA5"></path>
                    <path d="M49.7064429,37.1072292 C49.636569,37.460902 49.453871,37.736625 49.1663621,37.9282783 C48.8759685,38.1228305 48.4996748,38.2172077 48.0320321,38.2172077 L47.0348858,38.2172077 L47.4704762,36.0510426 L48.4083258,36.0510426 C48.9028924,36.0510426 49.2602753,36.140266 49.4859233,36.3238666 C49.7064429,36.5023135 49.7788811,36.764186 49.7064429,37.1072292 L49.862217,34.222767 C49.7952277,34.5442291 49.6256712,34.7925731 49.3545089,34.97102 C49.0801415,35.1517217 48.7256433,35.2383683 48.3035149,35.2383683 L47.6371481,35.2383683 L48.0429299,33.2612796 L48.7605803,33.2612796 C49.1904013,33.2612796 49.5022699,33.3424504 49.6849679,33.5044699 C49.8676659,33.6690662 49.9215137,33.9042039 49.862217,34.222767 L49.7064429,37.1072292 M51.469318,33.949943 C51.5741289,33.4397265 51.4427146,33.0560979 51.0850112,32.7968023 C50.7250642,32.5400836 50.1362639,32.4131737 49.3166873,32.4131737 L46.7502616,32.4131737 L45.5809947,38.2497404 C45.5380446,38.4494463 45.4710554,38.5927836 45.3688086,38.6845839 C45.2745749,38.7709084 45.1296986,38.8275992 44.9386671,38.8437045 L44.887704,39.1030001 L47.8951689,39.1030001 C48.8544935,39.1030001 49.6176581,38.9384037 50.1929964,38.6114658 C50.7654501,38.281951 51.117384,37.8068442 51.24367,37.1855011 C51.343032,36.7100721 51.2596961,36.3238666 50.9856492,36.0349373 C50.7196153,35.7460079 50.2949227,35.5730368 49.7064429,35.5247208 C50.1981248,35.4139162 50.5933293,35.2248398 50.891736,34.9545926 C51.2007199,34.6872444 51.391431,34.3551527 51.469318,33.949943" id="Fill-39" fill="#254AA5"></path>
                    <path d="M54.8046136,32.4618761 C54.5949917,32.4728278 54.3908187,32.4808804 54.1892099,32.4808804 C53.9901653,32.4808804 53.7859923,32.4728278 53.5872682,32.4618761 C53.5388693,32.4538235 53.4984834,32.4509245 53.4500845,32.4483477 L52.2891511,38.2820154 C52.2487652,38.4791445 52.1788913,38.6276355 52.0795292,38.716859 C51.9852955,38.8060824 51.8429834,38.8627732 51.6493877,38.8788785 L51.5984246,39.1381741 C51.8484323,39.1030645 52.0795292,39.0760076 52.2891511,39.0573254 C52.4962088,39.040898 52.6840351,39.0328453 52.8561558,39.0328453 C53.0308407,39.0328453 53.2135387,39.040898 53.4125833,39.0573254 C53.6087432,39.0760076 53.8343912,39.1030645 54.0789501,39.1381741 L54.1327979,38.8788785 C53.9552283,38.8627732 53.8343912,38.8060824 53.7645173,38.716859 C53.7081053,38.6276355 53.697528,38.4791445 53.7404781,38.2820154 L54.7616635,33.2423398 C54.8046136,33.0481097 54.8719234,32.9021955 54.9687212,32.812972 C55.0626344,32.7237486 55.2023823,32.6699568 55.3985422,32.6535294 L55.4549542,32.3942338 C55.2347551,32.4241897 55.0142355,32.4457708 54.8046136,32.4618761" id="Fill-41" fill="#254AA5"></path>
                    <path d="M60.5505287,37.6177033 C60.4671928,37.8795758 60.3569329,38.0200142 60.1876969,38.0957091 C59.900188,38.2280948 59.7065923,38.1820336 59.3601072,38.1820336 L57.2180537,38.1820336 L58.2257772,33.2396341 C58.2607142,33.0289765 58.3414859,32.8833845 58.4462969,32.7912621 C58.5562362,32.6994618 58.7123307,32.6537227 58.9245168,32.6537227 L58.9809288,32.3944271 C58.7068819,32.4240609 58.462323,32.4430651 58.236675,32.4620694 C58.0161553,32.4726989 57.8145465,32.4807516 57.6478747,32.4807516 C57.4491506,32.4807516 57.2449776,32.4726989 57.0379199,32.4620694 C56.9975341,32.4536946 56.9491351,32.4511178 56.9090698,32.445642 L55.7532648,38.2522528 C55.7103147,38.449704 55.6430049,38.5927192 55.5490918,38.6845195 C55.4548581,38.770844 55.3070971,38.8275347 55.1189502,38.8439622 L55.0599741,39.1032578 L60.3569329,39.1032578 C60.4082166,38.822381 60.4457177,38.6494099 60.5396309,38.3443752 C60.6338646,38.0119615 60.6444418,37.9662224 60.7710483,37.6528129 L60.5505287,37.6177033" id="Fill-43" fill="#254AA5"></path>
                    <path d="M61.1606117,36.1052531 C60.5208483,36.2537441 60.2278905,36.6914866 60.2278905,36.6914866 L62.2731461,33.4233957 L62.6468756,36.0591919 C62.6468756,36.0591919 61.5663935,36.0160296 61.1606117,36.1052531 L61.1606117,36.1052531 Z M72.0478077,32.4158471 L72.0423589,32.4158471 L71.7170283,32.4158471 C71.5692673,32.4158471 71.3272726,32.4213229 71.1823963,32.4158471 L70.2631371,36.9939444 L68.2313434,32.394266 C68.0380682,32.4187461 67.8444725,32.4348514 67.6483126,32.445803 C67.4601657,32.4593315 67.26657,32.4619083 67.07041,32.4619083 C66.8822632,32.4619083 66.6995652,32.4593315 66.5194314,32.445803 C66.3367335,32.4348514 66.1646128,32.4187461 65.9899279,32.394266 L65.9389648,32.6535616 C66.1325605,32.6806185 66.2588465,32.7402082 66.3043607,32.8265327 C66.3476313,32.9157562 66.3476313,33.0964578 66.2937834,33.366705 L65.5492091,37.0261551 L65.181249,38.8492769 L65.1299653,38.8492769 L65.0466294,38.8518538 C64.8882912,38.8357484 64.7780314,38.8061147 64.7001443,38.7168912 C64.6139237,38.6250909 64.5523834,38.449543 64.5039844,38.1902474 L63.5443393,33.1721528 C63.5228643,33.0722998 63.5013893,32.9614953 63.4853631,32.8345854 C63.4719012,32.7131513 63.455875,32.5672371 63.4340795,32.394266 C63.2299065,32.4187461 63.0337466,32.4348514 62.8455997,32.445803 C62.6523245,32.4593315 62.4747549,32.4619083 62.3109678,32.4619083 C62.1173721,32.4619083 61.9317894,32.4593315 61.7599892,32.445803 C61.5798554,32.4348514 61.4026063,32.4187461 61.2304856,32.394266 L61.1766378,32.6374563 C61.3243988,32.6429321 61.4295303,32.6645132 61.4910706,32.7076755 C61.5609446,32.7534146 61.5798554,32.8130042 61.5609446,32.8967519 C61.5503673,32.9344383 61.5340207,32.9750237 61.5125456,33.018186 C61.4910706,33.0642472 61.4615825,33.1264137 61.4077347,33.2017866 C61.4077347,33.2017866 58.3736664,37.9174233 58.4166165,37.8417283 C58.4166165,37.8417283 58.9730439,37.8552568 59.3089518,37.8552568 C59.6179357,37.8552568 59.5240225,37.8285219 59.5240225,37.8285219 L60.2333394,36.7481773 L62.7138649,36.7588068 L63.0715683,39.0760398 L63.1145183,39.070564 C63.3670902,39.0573576 63.6116491,39.0544586 63.8372971,39.0544586 L64.3049398,39.0544586 L64.4151996,39.0544586 C64.4581497,39.0573576 64.7565563,39.0654103 65.0815664,39.0573576 L65.0924642,39.0573576 L65.1408631,39.0573576 L65.0815664,39.0573576 L65.076438,39.0599344 L65.1408631,39.0573576 L65.1408631,39.0599344 L65.1514404,39.0573576 L65.1703512,39.0573576 L65.2187501,39.0573576 L65.1758001,39.0573576 C65.2751621,39.0573576 65.3341383,39.0544586 65.4713221,39.0573576 L65.5870308,39.0573576 L65.780306,39.0573576 C65.9229386,39.0573576 66.0437757,39.0573576 66.2104475,39.0734629 C66.3851324,39.0869914 66.5518042,39.0895682 66.7450795,39.122101 L66.7934784,38.8628054 C66.5248803,38.8438011 66.3473107,38.7816346 66.2748726,38.6763058 C66.1944214,38.5658233 66.1889725,38.3548437 66.2588465,38.0417563 L67.1457329,33.6717397 L69.6288226,39.1030967 L70.7468059,39.1030967 L71.9212013,33.318067 L71.9266502,33.318067 L73.9154938,33.318067 L72.7680224,39.0625113 L72.8029593,39.0573576 C73.0395051,39.0409302 73.270602,39.0328775 73.4853523,39.0328775 C73.700423,39.0328775 73.9263916,39.0409302 74.1680657,39.0573576 C74.4046115,39.0760398 74.6626323,39.1030967 74.9446923,39.1382063 L74.9985401,38.8789107 C74.7030182,38.8628054 74.5148713,38.798062 74.4369843,38.6763058 C74.3562126,38.5548717 74.3562126,38.2875235 74.4475615,37.8716842 L75.369385,33.318067 L76.1889616,33.3154901 C76.5787173,33.3154901 76.8447511,33.390863 76.9928327,33.5503056 C77.124247,33.7068493 77.1861079,33.9986777 77.1646328,34.4225696 L77.3851525,34.4225696 C77.4011786,34.1255875 77.4281025,33.8121781 77.4656037,33.4855623 C77.4950918,33.1531485 77.5489396,32.8020526 77.6108005,32.4158471 L72.0478077,32.4158471 Z" id="Fill-45" fill="#254AA5"></path>
                    <path d="M14.223293,56.8148542 L14.1024559,57.2793315 C14.4220171,57.3038116 14.6316389,57.392713 14.7313215,57.5495787 C14.8281194,57.7061224 14.8281194,57.9544664 14.7313215,58.3029855 L12.3447092,67.1074399 C12.2559244,67.4585358 12.1190611,67.7097788 11.9254654,67.8717983 C11.7453316,68.0338177 11.4818619,68.128517 11.1459541,68.1500981 L11.0280017,68.6200513 C11.4254499,68.5633606 11.8100772,68.5201983 12.1754731,68.4850887 C12.5434333,68.4580318 12.906265,68.4390275 13.2476217,68.4390275 C13.5514773,68.4390275 13.892834,68.4580318 14.266243,68.4850887 C14.6425367,68.5201983 15.0643446,68.5633606 15.5185254,68.6200513 L15.6502602,68.1500981 C15.2794154,68.152675 15.0322924,68.0744031 14.9165837,67.904331 C14.8011955,67.7394126 14.7957466,67.4749633 14.8951086,67.1074399 L15.8598821,63.5587945 L17.9346258,63.5587945 C18.2115575,63.5558955 18.4317566,63.5803756 18.5958642,63.6344895 C18.7490741,63.6882812 18.8538851,63.7829805 18.8942709,63.9205199 C18.937221,64.0583814 18.9317721,64.2555105 18.8699112,64.5093303 L19.2247299,64.5093303 C19.3051811,64.1717628 19.367042,63.8531997 19.4343517,63.569424 C19.4987768,63.2833936 19.5551888,63.024098 19.6199344,62.7863835 C19.6814748,62.572827 19.7567976,62.3164304 19.8510313,62.024602 C19.9394956,61.7301968 20.0497554,61.4061579 20.1654641,61.0470093 L19.8241074,61.0470093 C19.7462204,61.3008291 19.6414094,61.4953813 19.5202518,61.6358197 C19.4048637,61.7682054 19.2516538,61.8625825 19.0740842,61.9086437 C18.8833731,61.9598586 18.6442632,61.9814398 18.3593185,61.9814398 L16.2871389,61.9814398 L17.2628102,58.3947858 L20.544322,58.3947858 C20.8802299,58.38931 21.1462637,58.4028384 21.3613345,58.437948 C21.5764053,58.4730576 21.7347435,58.5352241 21.8504522,58.6299234 C21.9552631,58.7268774 22.0225729,58.8621621 22.0440479,59.0483395 C22.065523,59.2238875 22.0546252,59.4641788 21.9982132,59.7560071 L22.390533,59.7560071 C22.4738689,59.2915298 22.5681026,58.8080482 22.6834908,58.3219897 C22.7937506,57.8275565 22.9200366,57.3253927 23.0623487,56.8148542 L14.223293,56.8148542" id="Fill-47" fill="#254AA5"></path>
                    <path d="M27.4512025,60.2448357 C27.9778214,60.2503115 28.3970652,60.4258595 28.711498,60.7740564 C29.0208024,61.1225754 29.2035004,61.6141097 29.2679255,62.2486592 C29.3297863,62.8835308 29.2410015,63.626308 29.0099046,64.4876203 C28.8381045,65.119915 28.5961098,65.6571884 28.281677,66.1081373 C27.9617953,66.5539324 27.5989635,66.8995525 27.1797198,67.1427428 C26.7630402,67.3801352 26.3171931,67.4989924 25.8415373,67.5044682 C25.309149,67.4989924 24.8847769,67.3208676 24.5703441,66.9697717 C24.2610397,66.6160989 24.0703286,66.1190889 24.0084677,65.4790636 C23.9494916,64.8335625 24.0353916,64.0663052 24.2664885,63.1834118 C24.4437376,62.5594918 24.6802834,62.0328479 24.9895879,61.5925286 C25.2985718,61.157685 25.6614035,60.8201176 26.0806473,60.5933547 C26.4970063,60.3611161 26.9540718,60.2474125 27.4512025,60.2448357 M21.9766741,63.6884745 C21.834362,64.2151183 21.7616033,64.7172821 21.7616033,65.2007637 C21.7564749,65.6813464 21.8209,66.1297184 21.9497501,66.5429808 C22.081485,66.9536664 22.2750807,67.3234444 22.5331015,67.6478055 C22.8475344,68.0420637 23.2263922,68.3364689 23.6834577,68.5390737 C24.1293048,68.7333039 24.6482311,68.8360558 25.231262,68.8360558 C25.9463483,68.8331568 26.6232923,68.7117227 27.2685046,68.4769072 C27.9079475,68.2391927 28.507325,67.9042022 29.0368286,67.4748344 C29.5769094,67.0454667 30.0391032,66.537505 30.4288588,65.9490167 C30.8106014,65.3627832 31.1006745,64.7172821 31.2942703,64.0179893 C31.4369029,63.4939223 31.509341,62.9943353 31.509341,62.5134306 C31.5147899,62.0409006 31.4474801,61.5980044 31.3157453,61.1902178 C31.1840104,60.7795322 30.9907352,60.4178068 30.7327144,60.0989215 C30.4073838,59.7046634 30.023077,59.4102582 29.5663321,59.215706 C29.1147156,59.0214758 28.6015587,58.9213008 28.0236562,58.9213008 C27.3194677,58.9267766 26.647652,59.0485328 26.0027603,59.2778725 C25.3629969,59.5101111 24.7690682,59.8370491 24.2289874,60.260941 C23.6994838,60.685155 23.23729,61.1902178 22.8475344,61.7680765 C22.4603429,62.3488343 22.1702698,62.9888595 21.9766741,63.6884745" id="Fill-49" fill="#254AA5"></path>
                    <path d="M37.9109495,60.2448357 C38.4350042,60.2503115 38.8571326,60.4258595 39.1715654,60.7740564 C39.4856777,61.1225754 39.6738246,61.6141097 39.7276724,62.2486592 C39.7895333,62.8835308 39.7061974,63.626308 39.4751005,64.4876203 C39.3029798,65.119915 39.0558567,65.6571884 38.7468728,66.1081373 C38.4244269,66.5539324 38.0641594,66.8995525 37.6449156,67.1427428 C37.228236,67.3801352 36.77694,67.4989924 36.3038484,67.5044682 C35.7743449,67.4989924 35.3496522,67.3208676 35.0352194,66.9697717 C34.7262355,66.6160989 34.5355245,66.1190889 34.4736636,65.4790636 C34.4092385,64.8335625 34.4951386,64.0663052 34.7342486,63.1834118 C34.9038051,62.5594918 35.1454792,62.0328479 35.4544632,61.5925286 C35.7637676,61.157685 36.1265994,60.8201176 36.5403942,60.5933547 C36.9622022,60.3611161 37.4163829,60.2474125 37.9109495,60.2448357 M32.436421,63.6884745 C32.2995578,64.2151183 32.2267991,64.7172821 32.2267991,65.2007637 C32.2216708,65.6813464 32.2832111,66.1297184 32.414946,66.5429808 C32.5412319,66.9536664 32.7402766,67.3234444 32.9928485,67.6478055 C33.3072813,68.0420637 33.6915881,68.3364689 34.1432046,68.5390737 C34.5945006,68.7333039 35.1079781,68.8360558 35.6964578,68.8360558 C36.4086594,68.8331568 37.0859239,68.7117227 37.7337004,68.4769072 C38.3731433,68.2391927 38.9725208,67.9042022 39.5074733,67.4748344 C40.0421052,67.0454667 40.504299,66.537505 40.8886058,65.9490167 C41.2757973,65.3627832 41.568755,64.7172821 41.764915,64.0179893 C41.899214,63.4939223 41.9745368,62.9943353 41.9745368,62.5134306 C41.9745368,62.0409006 41.9101118,61.5980044 41.7809411,61.1902178 C41.6492063,60.7795322 41.4530463,60.4178068 41.1979102,60.0989215 C40.8725796,59.7046634 40.482824,59.4102582 40.031528,59.215706 C39.5799114,59.0214758 39.066434,58.9213008 38.488852,58.9213008 C37.7846635,58.9267766 37.107399,59.0485328 36.4676356,59.2778725 C35.8281927,59.5101111 35.234264,59.8370491 34.6993116,60.260941 C34.1592308,60.685155 33.697037,61.1902178 33.3127302,61.7680765 C32.9255387,62.3488343 32.6300167,62.9888595 32.436421,63.6884745" id="Fill-51" fill="#254AA5"></path>
                    <path d="M46.5405757,60.3987703 C46.6264758,60.3932945 46.7152606,60.3878187 46.7985965,60.3878187 L47.0405911,60.3878187 C47.84927,60.3878187 48.4944823,60.5256802 48.9727022,60.8039801 C49.4538069,61.079381 49.7627908,61.4816918 49.9054234,62.0083356 C50.0531844,62.5378785 50.0262605,63.1779037 49.8220875,63.9313105 C49.518232,65.0441878 48.9755869,65.8893948 48.1906267,66.4620999 C47.4085512,67.0399587 46.4008277,67.3263112 45.1700204,67.328888 L44.9145638,67.328888 C44.8341126,67.3263112 44.7453278,67.3234122 44.6619918,67.3127827 L46.5405757,60.3987703 L46.5405757,60.3987703 Z M44.1055644,59.1644588 L44.0062023,59.5400348 C44.2587742,59.5561401 44.4254461,59.6289362 44.508782,59.7558461 C44.5895537,59.8801791 44.5895537,60.0802071 44.508782,60.3581849 L42.6087231,67.3749492 C42.5308361,67.652927 42.4260252,67.8500561 42.2782642,67.9743891 C42.1276185,68.101299 41.9208813,68.1744172 41.6599758,68.1905225 L41.5551649,68.5631995 L44.7668028,68.5631995 C46.0838307,68.5606227 47.2338664,68.3741231 48.2255637,67.9959703 C49.2066838,67.6232932 50.0262605,67.0805441 50.6660239,66.3648238 C51.3189287,65.6516804 51.7756736,64.7874691 52.0471564,63.7721899 C52.2218413,63.1347415 52.2782533,62.5433543 52.2218413,62.000283 C52.1628651,61.4630096 52.0042064,60.9930565 51.7436214,60.5933225 C51.4801517,60.1906896 51.1282177,59.8801791 50.68205,59.6534163 C50.3112052,59.4698156 49.8490114,59.3429058 49.314059,59.2697876 C48.7765423,59.1995684 48.1585745,59.161882 47.4598349,59.1644588 L44.1055644,59.1644588 Z" id="Fill-53" fill="#254AA5"></path>
                    <path d="M52.3831604,56.7824181 L52.2623233,57.2278912 C52.5254725,57.2443186 52.708491,57.3010093 52.834777,57.3928096 C52.955614,57.4820331 53.0389499,57.6224714 53.0710022,57.7980194 C53.1142728,57.98162 53.1277347,58.2164355 53.1277347,58.502788 L53.2915219,68.5631351 L55.4550504,68.5631351 L59.0695854,62.0704377 L59.0240712,68.5631351 L61.1122768,68.5631351 L67.0756025,58.0895256 C67.1858623,57.8923965 67.301571,57.730377 67.4118309,57.6089429 C67.5272191,57.4820331 67.6589539,57.3928096 67.8041507,57.3251673 C67.9464628,57.2684766 68.1237119,57.233367 68.3253207,57.2278912 L68.4464783,56.7824181 C68.0567226,56.8149508 67.7044681,56.8391088 67.4009331,56.8500604 C67.0919492,56.8635889 66.8230306,56.8687426 66.6028315,56.8687426 C66.3823118,56.8687426 66.1188421,56.8635889 65.820756,56.8500604 C65.5223493,56.8391088 65.1973392,56.8149508 64.8396358,56.7824181 L64.7187988,57.2278912 C65.0386805,57.2684766 65.2537512,57.3386957 65.3531133,57.430496 C65.4685015,57.5277721 65.4954254,57.6791621 65.4310003,57.8923965 C65.4069611,57.98162 65.3691394,58.0895256 65.3127274,58.2273871 C65.2588796,58.3597728 65.1809926,58.5188933 65.0925283,58.6973402 L61.410363,65.5330808 L61.4965836,58.7160224 C61.4965836,58.6190684 61.5100456,58.5108407 61.5260717,58.3974592 C61.5475467,58.2866547 61.5744706,58.1677974 61.6065229,58.054416 C61.6578066,57.8627627 61.7331294,57.7113728 61.8270426,57.6008903 C61.9209557,57.4900857 62.0581395,57.4037612 62.2302602,57.3441715 C62.3994962,57.2874808 62.6200158,57.2468954 62.8806008,57.2278912 L63.0014379,56.7824181 C62.587643,56.8255803 62.1683993,56.8581131 61.7382578,56.8742184 C61.3110009,56.8957995 60.8811799,56.9067511 60.4510384,56.9067511 C60.0776294,56.9067511 59.7064641,56.8957995 59.3330551,56.8742184 C58.9593256,56.8581131 58.5833524,56.8255803 58.204174,56.7824181 L58.077888,57.2278912 C58.4246936,57.2523712 58.6772655,57.3332199 58.8279112,57.4765572 C58.9811211,57.6224714 59.0641365,57.8411816 59.0641365,58.1436395 L59.085932,59.7561038 L55.7531365,65.6219822 L55.6915962,58.4651016 C55.6915962,58.330139 55.7050581,58.2003302 55.7210843,58.0679445 C55.7371104,57.9384577 55.7640343,57.8086489 55.7964071,57.6952674 C55.8313441,57.5657807 55.9198084,57.4604519 56.062441,57.3767043 C56.2047531,57.2874808 56.3874511,57.2414196 56.6134196,57.2278912 L56.7397056,56.7824181 C56.3364879,56.8255803 55.9521812,56.8581131 55.6002472,56.8742184 C55.2425438,56.8957995 54.906636,56.9067511 54.5976521,56.9067511 C54.2617442,56.9067511 53.9043614,56.8986985 53.5335165,56.8822711 C53.1652359,56.8661657 52.7809291,56.833633 52.3831604,56.7824181" id="Fill-55" fill="#254AA5"></path>
                    <path d="M72.2197041,60.2448357 C72.7437588,60.2503115 73.1655667,60.4258595 73.4799995,60.7740564 C73.7947529,61.1225754 73.9774508,61.6141097 74.036427,62.2486592 C74.092839,62.8835308 74.014952,63.626308 73.7838551,64.4876203 C73.606606,65.119915 73.3700602,65.6571884 73.0501785,66.1081373 C72.7357457,66.5539324 72.3674651,66.8995525 71.9482213,67.1427428 C71.5318623,67.3801352 71.0856946,67.4989924 70.6100389,67.5044682 C70.0776506,67.4989924 69.6584068,67.3208676 69.343974,66.9697717 C69.0295412,66.6160989 68.8388302,66.1190889 68.7769693,65.4790636 C68.7179931,64.8335625 68.8038932,64.0663052 69.040439,63.1834118 C69.2122392,62.5594918 69.448785,62.0328479 69.7580894,61.5925286 C70.0670733,61.157685 70.4299051,60.8201176 70.8437,60.5933547 C71.2655079,60.3611161 71.7225733,60.2474125 72.2197041,60.2448357 M66.7451756,63.6884745 C66.6028635,64.2151183 66.5355537,64.7172821 66.5301049,65.2007637 C66.5249765,65.6813464 66.5868374,66.1297184 66.7182517,66.5429808 C66.8499866,66.9536664 67.0435823,67.3234444 67.2961542,67.6478055 C67.6160359,68.0420637 67.9948938,68.3364689 68.4465103,68.5390737 C68.8978064,68.7333039 69.4167327,68.8360558 69.9997636,68.8360558 C70.7148498,68.8331568 71.3921144,68.7117227 72.0370061,68.4769072 C72.6818979,68.2391927 73.2758265,67.9042022 73.810779,67.4748344 C74.3454109,67.0454667 74.8079253,66.537505 75.1973604,65.9490167 C75.579103,65.3627832 75.8720608,64.7172821 76.0682207,64.0179893 C76.2079686,63.4939223 76.2832915,62.9943353 76.2832915,62.5134306 C76.2832915,62.0409006 76.2188664,61.5980044 76.0842468,61.1902178 C75.9579609,60.7795322 75.7592368,60.4178068 75.501216,60.0989215 C75.1758854,59.7046634 74.7915786,59.4102582 74.3402826,59.215706 C73.8832171,59.0214758 73.3700602,58.9213008 72.7921577,58.9213008 C72.0879692,58.9267766 71.4161536,59.0485328 70.7763902,59.2778725 C70.1314984,59.5101111 69.5430187,59.8370491 69.0026173,60.260941 C68.4679854,60.685155 68.0057916,61.1902178 67.6160359,61.7680765 C67.229165,62.3488343 66.9387714,62.9888595 66.7451756,63.6884745" id="Fill-57" fill="#254AA5"></path>
                    <path d="M78.4089983,59.1645233 L78.3096362,59.5397771 C78.5676571,59.5562046 78.7343289,59.6290006 78.8122159,59.7559105 C78.8875388,59.8802435 78.8926671,60.0799495 78.8122159,60.3582493 L76.9012593,67.4020706 C76.8342701,67.6745726 76.7185613,67.8800764 76.5708004,68.01214 C76.4256036,68.139372 76.2159817,68.2147449 75.952512,68.2337491 L75.847701,68.6064262 C76.1675827,68.5606871 76.4765667,68.5281543 76.7775375,68.5010974 C77.0759442,68.4769394 77.3528759,68.463411 77.6323717,68.463411 C77.9009697,68.463411 78.1779014,68.4769394 78.4679745,68.5010974 C78.7449061,68.5281543 79.0433128,68.5606871 79.3497326,68.6064262 L79.4490946,68.2337491 C79.1910738,68.2147449 79.024402,68.139372 78.9439508,68.01214 C78.8711921,67.8800764 78.8657432,67.6745726 78.9439508,67.4020706 L80.8385607,60.4284685 L81.7953211,60.4284685 C82.2251421,60.4310454 82.5664988,60.5012645 82.8354174,60.6417029 C83.0854251,60.7850402 83.2652384,60.9821693 83.3540232,61.2414649 C83.4373591,61.5007605 83.4319102,61.8086941 83.3379971,62.1623669 C83.2331861,62.5379429 83.0395904,62.8619818 82.7600946,63.1348059 C82.4886118,63.404731 82.1472551,63.6128117 81.7414733,63.7638796 C81.3437046,63.9097937 80.9084347,63.9854887 80.4298942,63.9854887 L80.271556,63.9854887 C80.1987973,63.9880656 80.1478342,63.9990172 80.0994353,64.025752 C80.0564852,64.0502321 80.0321255,64.0879185 80.0215482,64.1259271 C80.0000732,64.2096747 80.0375744,64.3552668 80.1369364,64.5662465 C80.236619,64.774005 80.3734822,65.0577807 80.540154,65.4169293 C80.7068259,65.773501 80.8975369,66.2134982 81.0911326,66.743041 C81.2953056,67.2696849 82.7197087,72.4981149 82.9024067,73.2167341 C83.2383145,73.1842014 83.5261439,73.1490918 83.7787158,73.1249338 C84.0258389,73.1033527 84.2354608,73.0898242 84.4075815,73.0898242 C84.5229697,73.0898242 84.7031034,73.1033527 84.9342003,73.1220348 C85.1707461,73.1465149 85.4637039,73.1761487 85.8156379,73.2167341 L85.9153205,72.8440571 L85.8480107,72.8440571 C85.6572997,72.8440571 85.4960767,72.7844674 85.3643419,72.6739849 C85.2271581,72.5602814 83.8780779,67.787954 83.7787158,67.5666669 C83.668456,67.3534325 83.5581962,67.091238 83.4479364,66.7807275 C83.3379971,66.467318 83.2062622,66.1136453 83.0556165,65.7164882 C82.9024067,65.3167542 82.7091314,64.8793338 82.4886118,64.401328 C83.0395904,64.276995 83.5312723,64.0879185 83.9614138,63.8340988 C84.3886706,63.5777021 84.7489382,63.2723453 85.0335624,62.9186726 C85.3159429,62.559524 85.5175517,62.1649437 85.6358246,61.7329992 C85.8050606,61.111656 85.7996118,60.6094923 85.6169138,60.2339163 C85.43678,59.8557635 85.084846,59.5803625 84.5553425,59.4128672 C84.0258389,59.2482709 83.3325482,59.1619464 82.4671368,59.1645233 L78.4089983,59.1645233" id="Fill-59" fill="#254AA5"></path>
                    <path d="M92.7226466,59.1348251 L92.6232846,59.4939736 C92.7790586,59.5155547 92.8947673,59.5506643 92.9537435,59.6047782 C93.0210533,59.6588921 93.0370794,59.7316881 93.0101555,59.8209115 C92.9886805,59.9017602 92.9537435,59.9884068 92.8947673,60.0692555 C92.8434837,60.1530032 92.7736097,60.231275 92.6902738,60.3124458 L89.0892008,63.742234 C89.3472216,64.1474438 89.6507566,64.7523595 89.9866645,65.5653559 C90.3225723,66.3809291 90.6963018,67.3910546 91.1100967,68.6063618 C91.3950414,68.5631995 91.6450492,68.5309889 91.8706972,68.5119846 C92.0963452,68.4849277 92.2873767,68.476875 92.4431508,68.476875 C92.7066205,68.476875 92.9646413,68.4875045 93.2197774,68.5145614 C93.4723493,68.5390415 93.7197929,68.5712522 93.9669159,68.6063618 L94.0717269,68.2336847 C93.897042,68.2282089 93.757294,68.2040509 93.6470342,68.1579897 C93.5342102,68.1096738 93.440297,68.0420315 93.3569611,67.9447553 C93.2896514,67.8503782 93.2197774,67.7234683 93.1633654,67.5720783 C92.8329064,66.6943386 92.5239225,65.8974475 92.2226311,65.1736746 C91.924545,64.4553775 91.6315872,63.820828 91.3251675,63.2858094 L94.6630913,60.0988893 C94.8698285,59.8991834 95.074322,59.7532692 95.278495,59.6614689 C95.482668,59.5696686 95.6922899,59.5129779 95.9073606,59.4939736 L96.0067227,59.1348251 C95.6253006,59.1699347 95.2890722,59.2024674 95.004448,59.2211496 C94.7060414,59.2427307 94.4694956,59.2482065 94.2758998,59.2482065 C94.0557007,59.2482065 93.813706,59.2427307 93.5505569,59.2211496 C93.2896514,59.2024674 93.0156044,59.1699347 92.7226466,59.1348251 M87.5410759,59.1348251 L87.4417139,59.4939736 C87.6997347,59.5129779 87.8664065,59.5857739 87.9442935,59.7126838 C88.0247448,59.8450695 88.0247448,60.0502513 87.9442935,60.3259743 L86.0307728,67.4020062 C85.9554499,67.6748302 85.8451901,67.880012 85.689416,68.0123977 C85.5471039,68.1393076 85.3426104,68.2150026 85.0685635,68.2336847 L84.9746503,68.6063618 C85.2942115,68.5606227 85.5926182,68.5280899 85.8990379,68.501033 C86.1919957,68.476875 86.4795046,68.4633465 86.7535515,68.4633465 C87.027919,68.4633465 87.2990813,68.476875 87.5894749,68.501033 C87.8718554,68.5280899 88.1673774,68.5606227 88.4709124,68.6063618 L88.570595,68.2336847 C88.3125742,68.2150026 88.1459023,68.1393076 88.0651306,68.0123977 C87.9872436,67.880012 87.9872436,67.6748302 88.0651306,67.4020062 L89.9866645,60.3259743 C90.0619873,60.0502513 90.1722471,59.8450695 90.3174439,59.7126838 C90.4652049,59.5857739 90.6748268,59.5129779 90.9434249,59.4939736 L91.0376586,59.1348251 C90.416806,59.2211496 89.8148643,59.2643118 89.2478595,59.2643118 C88.9629148,59.2643118 88.6805343,59.2562591 88.3959101,59.234678 C88.1189784,59.2076211 87.8234565,59.1808863 87.5410759,59.1348251" id="Fill-61" fill="#254AA5"></path>
                    <path d="M103.854273,59.494038 C103.485993,59.3130143 103.056172,59.1780517 102.559041,59.0807756 C102.069603,58.9863985 101.534971,58.9348615 100.941042,58.9348615 C100.126594,58.9403373 99.3983661,59.0646703 98.7586027,59.3075385 C98.1217241,59.5481519 97.592541,59.8776667 97.1784256,60.3015586 C96.7566177,60.7254505 96.4742371,61.2118311 96.3210273,61.7600561 C96.1947413,62.2351629 96.1896129,62.6432716 96.3158989,62.9753633 C96.436736,63.3155076 96.683859,63.6047591 97.0521397,63.853103 C97.4149714,64.0988702 97.896076,64.325633 98.4845558,64.5337137 C98.8528364,64.6632005 99.1727181,64.776904 99.4493293,64.8793338 C99.7236967,64.9875615 99.9493447,65.0928903 100.126594,65.2062717 C100.301279,65.3196532 100.416987,65.4575147 100.473399,65.6166352 C100.532376,65.7786547 100.532376,65.9812596 100.467951,66.2270267 C100.390064,66.4892213 100.247751,66.718561 100.027232,66.9211658 C99.812161,67.1237707 99.530101,67.2803144 99.1941932,67.3991716 C98.8582853,67.515452 98.4739785,67.5721427 98.043837,67.5747196 C97.5143335,67.5721427 97.0681658,67.4748666 96.6947568,67.2832134 C96.3373739,67.091238 96.0658912,66.8158371 95.8966552,66.4621643 C95.7245344,66.1081695 95.6706866,65.6762249 95.7245344,65.1792148 L95.4344614,65.1792148 C95.3402277,65.5870014 95.2623406,65.9165162 95.2030439,66.1648602 C95.1415036,66.4135263 95.098233,66.5861753 95.0741938,66.6834514 C95.020346,66.8886331 94.9559209,67.1076654 94.8889316,67.3534325 C94.8216219,67.5963007 94.7408501,67.8610721 94.6575142,68.1500015 C95.1091308,68.360659 95.5982485,68.5146259 96.1277521,68.6280073 C96.6572556,68.736235 97.2079137,68.7955026 97.7803673,68.7955026 C98.4470546,68.7900268 99.0464322,68.7117549 99.6025391,68.5552113 C100.158967,68.3986676 100.653533,68.18801 101.083354,67.915186 C101.513496,67.6423619 101.870879,67.3289525 102.152939,66.9778566 C102.432434,66.6241838 102.620581,66.2486078 102.73629,65.8517728 C102.857127,65.3924492 102.857127,64.998191 102.730841,64.6686763 C102.610004,64.3336857 102.368009,64.0396026 102.008062,63.7938355 C101.650359,63.5451694 101.177588,63.3238823 100.588788,63.1238543 C100.201917,62.9914686 99.8660088,62.8700345 99.5704869,62.7647057 C99.2826574,62.659377 99.0464322,62.5485724 98.8637342,62.4406668 C98.6781515,62.3272853 98.5573145,62.1920007 98.4954536,62.0380339 C98.4255796,61.8814902 98.4255796,61.6898369 98.4900047,61.463074 C98.6057134,61.0443358 98.8473875,60.7228737 99.213104,60.4880582 C99.586513,60.2503437 100.054156,60.1314865 100.62116,60.1234338 C101.110278,60.1285875 101.529522,60.2123352 101.876327,60.3798305 C102.231146,60.5499026 102.494295,60.7821413 102.679878,61.0874981 C102.857127,61.3899559 102.940463,61.7491045 102.918988,62.1623669 L103.23887,62.1623669 C103.32477,61.6978896 103.424132,61.2414649 103.529263,60.7985687 C103.639203,60.3527735 103.744014,59.91793 103.854273,59.494038" id="Fill-63" fill="#254AA5"></path>
                </g>
            </g>
        </g>
    </g>
</svg>