<?xml version="1.0" encoding="UTF-8" standalone="no"?>
<svg width="128px" height="42px" viewBox="0 0 128 42" version="1.1" xmlns="http://www.w3.org/2000/svg" xmlns:xlink="http://www.w3.org/1999/xlink">
    <!-- Generator: sketchtool 3.8.2 (29753) - http://www.bohemiancoding.com/sketch -->
    <title>FBDC51F1-282B-4EB2-9EAC-A87DF853F243</title>
    <desc>Created with sketchtool.</desc>
    <defs></defs>
    <g id="Page-1" stroke="none" stroke-width="1" fill="none" fill-rule="evenodd">
        <g id="Desktop-|-Home" transform="translate(-237.000000, -1048.000000)">
            <g id="Group-11" transform="translate(237.000000, 1029.000000)">
                <g id="logo_big_bazaar-copy" transform="translate(0.000000, 19.622642)">
                    <path d="M99.0244734,22.6240807 C99.1021496,21.3573673 99.7676451,10.2682931 99.9041031,10.0891619 C100.067853,10.3002808 100.04476,11.2769724 100.065753,11.6203072 L100.361763,16.3203686 C100.437339,17.9090917 100.762739,21.3573673 100.745944,22.6240807 L99.0244734,22.6240807 L99.0244734,22.6240807 Z M84.7299656,22.6176832 C84.7425617,21.6026064 84.8664237,20.4553137 84.9294043,19.4082492 L85.4500443,11.5584642 C85.4626405,11.2705748 85.3954611,10.2064502 85.6200921,10.0891619 C85.7838418,10.1893901 85.7166624,10.6393506 85.7271592,10.8462045 L86.0651553,16.3651514 C86.1596263,17.3994208 86.1995141,18.4507503 86.2603954,19.4700921 C86.3254754,20.5064941 86.4304431,21.5770162 86.4556354,22.6240807 L84.7299656,22.6176832 L84.7299656,22.6176832 Z M78.9630376,32.0220711 L84.1022585,32.0306011 L84.5179308,26.4540763 L86.7012599,26.4476788 C86.8839038,28.1408951 86.9636793,29.9919175 87.0581502,31.6723387 C87.0896406,32.1350943 86.9909709,32.0306011 88.0763374,32.0306011 C89.1176174,32.0306011 91.5276769,32.0860465 92.279246,32.009276 L91.6305453,26.4476788 L93.8852525,26.4455463 L93.2638435,32.0178061 L98.4219586,32.0263361 L98.8187366,26.4668714 L100.98947,26.4476788 L101.388347,32.0071435 L106.573754,32.0284686 C106.569555,31.11362 106.305036,29.686968 106.19587,28.7422642 L104.226675,12.2941817 C104.109111,11.4027907 103.544385,6.05870996 103.393231,5.69405002 C103.082527,5.57889425 97.0909675,5.60021939 96.3435972,5.66206231 L94.3660048,22.5942255 L91.1665879,22.6283458 L89.1302136,5.65779728 L82.053288,5.64926722 L78.9630376,32.0220711 L78.9630376,32.0220711 Z" id="Fill-1" fill="#163771"></path>
                    <path d="M5.48981318,19.7387889 L7.12311133,19.7494515 L7.11681327,28.575928 L5.4562235,28.5610004 L5.48981318,19.7387889 L5.48981318,19.7387889 Z M5.47931641,9.07621764 L7.12311133,9.09754278 L7.10211778,15.9258534 L5.45832286,15.9194559 L5.47931641,9.07621764 L5.47931641,9.07621764 Z M0.138557426,32.0071435 C0.722178101,32.0945766 6.18469967,32.0284686 7.26166876,32.0284686 C8.51708301,32.0284686 9.38831532,32.1116367 10.4044031,31.5870382 C12.6759052,30.4120228 12.4470755,28.3093638 12.4470755,26.3709083 L12.4470755,22.7435015 C12.4470755,20.5491444 12.7136936,19.0841071 10.4044031,18.0135849 C10.1839708,17.9069592 10.2196599,17.9751996 10.1146921,17.7790083 C10.9523348,17.433541 11.5905387,17.0049057 11.9999129,16.3715489 C12.5835335,15.4758929 12.4470755,14.588767 12.4470755,13.4052216 L12.4470755,10.0145239 C12.4470755,8.80325581 12.3358097,8.08886354 11.7626858,7.27850812 C10.4295954,5.39336551 8.73331657,5.64500219 6.7935126,5.64500219 C5.38694479,5.64500219 1.230222,5.57676174 0.159550976,5.64926722 L0.138557426,32.0071435 L0.138557426,32.0071435 Z" id="Fill-2" fill="#E7792B"></path>
                    <path d="M113.635984,9.07621764 L115.296574,9.09327775 L115.296574,17.0966038 L113.610792,17.0859412 L113.635984,9.07621764 L113.635984,9.07621764 Z M108.303622,31.9986134 L113.598195,32.0306011 L113.612891,20.9393945 L115.286077,20.9202018 L115.286077,31.9900834 C115.745836,32.1265643 119.770299,32.0284686 120.586948,32.0284686 C120.666724,31.0752348 120.597445,25.7631417 120.597445,24.3471523 C120.597445,23.255305 120.748598,21.6601843 120.328727,20.796516 C119.793392,19.6833436 119.041823,19.5106099 118.451904,19.1395524 L118.283956,18.992409 C118.762609,18.627749 119.665331,18.4507503 120.230058,17.4484686 C120.7423,16.529355 120.597445,15.4545678 120.597445,14.29448 L120.597445,10.7864941 C120.597445,9.50911803 120.704512,8.73501536 120.143984,7.65809566 C119.757703,6.91811321 119.171983,6.36152699 118.346936,5.97340939 C117.39173,5.53197894 116.405033,5.64500219 115.250388,5.64500219 C113.992874,5.64500219 109.141265,5.57889425 108.324616,5.65139974 L108.303622,31.9986134 L108.303622,31.9986134 Z" id="Fill-3" fill="#163771"></path>
                    <path d="M34.4336198,32.0178061 L34.4483153,17.8088635 L28.3517885,17.798201 L28.3412918,21.5407635 L29.0445757,21.5578236 L29.0529731,28.6271084 L27.4007807,28.6484335 L27.396582,9.06342255 L29.0445757,9.06129004 L29.0550724,14.6889952 L34.4378185,14.7039228 L34.4483153,5.65992979 C33.3188623,5.58102677 29.5274273,5.64926722 28.1124621,5.64926722 C25.8157678,5.64926722 24.2643445,5.47440105 23.0215263,6.92024572 C21.7514166,8.40021062 22.0474256,10.0123914 22.0474256,12.3325669 L22.0474256,25.2406757 C22.0474256,27.4329004 21.7325224,29.2924528 23.0068308,30.7255024 C24.3042322,32.1969373 25.675111,32.0284686 28.0515808,32.0284686 C29.5841099,32.0284686 33.1614107,32.0988416 34.4336198,32.0178061" id="Fill-4" fill="#E7792B"></path>
                    <path d="M60.0877373,10.0955595 C60.2976727,10.1552699 60.228394,10.1872576 60.2556856,10.7864941 L60.5936818,16.2627907 C60.677656,17.657455 60.9883605,21.5343659 60.9799631,22.6240807 L59.2542933,22.6240807 L60.0877373,10.0955595 L60.0877373,10.0955595 Z M53.4936634,32.0178061 C54.2536299,32.0412637 58.2004172,32.1116367 58.643381,31.9922159 L59.0506559,26.4604739 C59.4495333,26.4178236 60.6398676,26.4092935 61.0303476,26.4391487 C61.3305554,26.4690039 61.2339851,26.4988591 61.2843696,27.1919263 C61.3725425,28.5844581 61.4628147,30.7958754 61.6286638,32.009276 L66.8119711,32.0284686 C66.7846795,31.1242826 66.5663466,29.6293901 66.4298885,28.7145415 C66.2640395,27.6546819 66.1380782,26.4860641 66.0331105,25.4198069 C65.829473,23.263835 65.5061724,21.0353576 65.2479517,18.8623256 C65.1471827,18.0498376 63.7847013,6.0800351 63.6335478,5.69405002 C63.3354394,5.58529179 57.3207874,5.60661694 56.5797151,5.65779728 L53.4936634,32.0178061 L53.4936634,32.0178061 Z" id="Fill-5" fill="#163771"></path>
                    <path d="M68.354997,10.0550417 L72.0267688,10.0848969 C71.9973779,10.55405 71.0232772,14.4522861 70.8343352,15.2754366 L68.3340035,25.9635981 C68.1660551,26.6865204 67.7860718,27.9638964 67.7860718,28.6889513 C67.7860718,29.6976305 67.704197,31.0645722 67.798668,32.0306011 L77.7160207,32.0306011 L77.7265175,27.592839 L73.4543302,27.592839 C73.4333366,27.2516367 76.8867755,12.6695042 77.1303007,11.6267047 C77.2877523,10.993348 77.7013252,9.55603335 77.7265175,8.94400176 C77.7517098,8.47058359 77.770604,5.95421676 77.6929278,5.64500219 L68.3780899,5.64500219 L68.354997,10.0550417" id="Fill-6" fill="#163771"></path>
                    <path d="M45.0647533,9.08048267 L46.7421379,9.10180781 L46.7316411,15.9194559 L45.0647533,15.9194559 L45.0647533,9.08048267 L45.0647533,9.08048267 Z M39.7659814,12.0638701 L39.8646511,12.1640983 C39.8751478,12.1768934 39.887744,12.191821 39.894042,12.1982185 C39.9276317,12.2430013 39.9360291,12.2621939 39.9654201,12.3027117 L45.0878462,19.7409215 L46.7421379,19.7579816 L46.7421379,22.1954454 C46.985663,22.4044318 47.7435302,23.6114348 48.0164463,24.0038175 C48.4174231,24.5817288 48.8582876,25.2364107 49.2634632,25.8228521 C50.1661858,27.1172883 50.9177548,28.2752435 51.7868878,29.4886441 C51.8288749,29.4395963 51.8183781,29.4651865 51.8624646,29.3798859 C51.8897562,29.3329706 51.9128491,29.2796577 51.9275446,29.2135498 C52.1836659,28.352014 52.0640026,23.5602545 52.0640026,22.6240807 C52.0640026,21.5301009 52.2004607,20.3039052 51.6966155,19.4381044 C51.320831,18.7940851 50.5692619,18.1777885 49.7211225,17.8856341 C49.8239909,17.6745151 49.9835419,17.6745151 50.2249677,17.5465643 C52.1836659,16.5272225 52.0640026,15.3692672 52.0640026,13.4627995 L52.0640026,10.0721018 C52.0640026,8.83311101 51.9968233,8.24240456 51.4111033,7.34248355 C50.1577884,5.41895568 48.3187534,5.64500219 46.4377314,5.64500219 C44.2355081,5.64500219 41.9891983,5.59382185 39.7890743,5.64713471 C39.6715104,6.13548047 39.7176962,11.2812374 39.7659814,12.0638701 L39.7659814,12.0638701 Z" id="Fill-7" fill="#163771"></path>
                    <polyline id="Fill-8" fill="#E7792B" points="14.7185775 32.009276 20.0110513 32.0263361 20.0215481 5.64713471 14.7374717 5.64500219 14.7185775 32.009276"></polyline>
                    <path d="M51.7973846,29.4268012 C50.930351,28.2134006 50.1661858,27.1172883 49.2634632,25.8228521 C48.8582876,25.2364107 48.4174231,24.5817288 48.0164463,24.0038175 C47.7435302,23.6114348 46.985663,22.4044318 46.7421379,22.1954454 L46.7400385,28.5652655 L45.0815481,28.5801931 L45.0878462,19.7409215 L39.9654201,12.3027117 C39.9360291,12.2621939 39.9276317,12.2430013 39.894042,12.1982185 C39.887744,12.191821 39.8751478,12.1768934 39.8646511,12.1640983 L39.7659814,12.0638701 L39.7596833,32.0199386 C42.1025634,32.1244318 44.6637765,32.0284686 47.0297495,32.0284686 C48.2347792,32.0284686 49.244569,32.0583238 50.1535896,31.5166652 C50.6217458,31.2309083 51.8225768,30.1689162 51.7973846,29.4268012" id="Fill-9" fill="#E7792B"></path>
                    <path d="M121.283934,0.258271172 C121.304927,0.467257569 121.309126,0.433137341 121.441386,0.567485739 C121.691209,0.810592365 121.569446,0.554690654 121.624029,0.908688021 C121.670215,1.25842036 121.630327,1.08355419 121.770984,1.30746819 C121.932635,1.55697236 121.829766,1.39490127 121.861257,1.74036858 C121.907442,2.19459412 122.087987,2.04318561 122.188756,2.43983326 C122.274829,2.8044932 122.335711,2.90258885 122.516255,3.17128565 C122.833258,3.66176393 123.091479,4.17783238 122.684204,4.71735849 C122.409188,5.08201843 121.756289,5.25475208 121.516962,5.62580957 C122.711495,5.69831505 124.378383,4.88156209 124.993494,4.3292409 C126.085159,3.34188679 125.969694,3.01561211 126.578507,2.37372532 C126.947994,1.98774024 127.080253,2.12848618 127.34897,1.92376481 C127.065557,1.25202282 126.368572,1.39063624 125.843733,1.7425011 C125.306298,2.10502852 124.791956,2.38012286 124.16005,1.92163229 C123.70659,1.58896007 122.365102,-0.157569109 121.283934,0.258271172" id="Fill-10" fill="#E7792B"></path>
                    <path d="M59.5461037,40.6736814 L57.4194571,37.8587626 L57.4194571,40.6182361 L56.6636893,40.6182361 L56.6636893,36.1591487 L57.0415732,36.1591487 L59.1199346,38.8461167 L59.1199346,36.1591487 L59.8610069,36.1591487 L59.8610069,40.6736814 L59.5461037,40.6736814 L59.5461037,40.6736814 Z M63.3228432,40.613971 L63.0016419,39.71405 L61.4985038,39.71405 L61.1898986,40.613971 L60.3270637,40.613971 L62.0779257,36.0973058 L62.4201206,36.0973058 L64.1856781,40.613971 L63.3228432,40.613971 L63.3228432,40.613971 Z M62.2500728,37.4599824 L61.718936,39.1020184 L62.7707129,39.1020184 L62.2500728,37.4599824 L62.2500728,37.4599824 Z M65.9218446,38.7842738 L65.9218446,40.613971 L65.1450833,40.613971 L65.1450833,38.7842738 L63.6629387,36.1591487 L64.4921839,36.1591487 L65.5292653,38.0613515 L66.5705453,36.1591487 L67.3934925,36.1591487 L65.9218446,38.7842738 L65.9218446,38.7842738 Z M68.6384099,36.8607459 L68.6384099,37.9035454 L70.0932629,37.9035454 L70.0932629,38.5731549 L68.6384099,38.5731549 L68.6384099,39.9123738 L70.6285984,39.9123738 L70.6285984,40.613971 L67.8595493,40.613971 L67.8595493,36.1591487 L70.6600888,36.1591487 L70.6600888,36.8607459 L68.6384099,36.8607459 L68.6384099,36.8607459 Z M73.2150037,40.613971 L73.9896657,40.613971 L73.9896657,36.1591487 L73.2150037,36.1591487 L73.2150037,40.613971 Z M77.7873988,40.6736814 L75.6565535,37.8587626 L75.6565535,40.6182361 L74.9049845,40.6182361 L74.9049845,36.1591487 L75.2828683,36.1591487 L77.3549317,38.8461167 L77.3549317,36.1591487 L78.1044014,36.1591487 L78.1044014,40.6736814 L77.7873988,40.6736814 L77.7873988,40.6736814 Z M79.9707279,40.613971 L78.9987266,40.613971 L78.9987266,36.1634138 C79.6243344,36.1356911 80.012715,36.1250285 80.1701667,36.1250285 C80.8104699,36.1250285 81.3185138,36.3190873 81.6942984,36.6986749 C82.0658842,37.0739974 82.2548261,37.5836683 82.2548261,38.208495 C82.2548261,39.8164107 81.496959,40.613971 79.9707279,40.613971 L79.9707279,40.613971 Z M79.7838853,36.8500834 L79.7838853,39.8953137 C79.9035486,39.9038438 80.0400067,39.9123738 80.1890609,39.9123738 C80.5816402,39.9123738 80.8902454,39.7652304 81.106479,39.4773409 C81.3311099,39.1851865 81.4465745,38.7800088 81.4465745,38.2618078 C81.4465745,37.3085739 81.0099086,36.8287582 80.1344776,36.8287582 C80.0547021,36.8287582 79.9308402,36.8394208 79.7838853,36.8500834 L79.7838853,36.8500834 Z M82.95811,40.613971 L83.732772,40.613971 L83.732772,36.1591487 L82.95811,36.1591487 L82.95811,40.613971 Z M87.2093038,40.613971 L86.8923012,39.71405 L85.3870637,39.71405 L85.0826572,40.613971 L84.217723,40.613971 L85.968585,36.0973058 L86.3044818,36.0973058 L88.0700393,40.613971 L87.2093038,40.613971 L87.2093038,40.613971 Z M86.1323347,37.4599824 L85.607496,39.1020184 L86.6592728,39.1020184 L86.1323347,37.4599824 L86.1323347,37.4599824 Z M92.5311686,40.613971 L91.3156421,38.7160333 L90.8264924,39.3941729 L90.8264924,40.613971 L90.0413336,40.613971 L90.0413336,36.1591487 L90.8264924,36.1591487 L90.8264924,38.291663 L92.3191337,36.1591487 L93.2008628,36.1591487 L91.829984,38.1018692 L93.4632822,40.613971 L92.5311686,40.613971 L92.5311686,40.613971 Z M96.3918823,40.613971 L96.070681,39.71405 L94.5696422,39.71405 L94.2610371,40.613971 L93.3961028,40.613971 L95.1469648,36.0973058 L95.4912591,36.0973058 L97.2547172,40.613971 L96.3918823,40.613971 L96.3918823,40.613971 Z M95.3191119,37.4599824 L94.7900745,39.1020184 L95.8418513,39.1020184 L95.3191119,37.4599824 L95.3191119,37.4599824 Z M100.569599,40.613971 L99.2281109,40.613971 L99.2281109,36.1634138 C99.8201289,36.1314261 100.233702,36.1207635 100.46673,36.1207635 C100.92439,36.1207635 101.28128,36.2167266 101.535302,36.4129179 C101.791423,36.6112418 101.921583,36.8948662 101.921583,37.2595261 C101.921583,37.6135235 101.734741,37.8928828 101.371552,38.0954717 C101.917385,38.291663 102.190301,38.6925757 102.190301,39.2896797 C102.190301,39.6948574 102.037048,40.0211321 101.734741,40.2557086 C101.434533,40.4988153 101.041954,40.613971 100.569599,40.613971 L100.569599,40.613971 Z M100.002773,36.794638 L100.002773,37.8608951 C100.122436,37.8672927 100.252596,37.8694252 100.386955,37.8694252 C100.8908,37.8694252 101.140623,37.6817639 101.140623,37.2915138 C101.140623,36.948179 100.911794,36.7797104 100.454134,36.7797104 C100.330272,36.7797104 100.185417,36.7818429 100.002773,36.794638 L100.002773,36.794638 Z M100.002773,38.4771918 L100.002773,39.9528916 C100.164423,39.9656867 100.292484,39.9720842 100.389054,39.9720842 C100.733348,39.9720842 100.98947,39.9166389 101.144822,39.7908205 C101.300174,39.6735323 101.382049,39.4752084 101.382049,39.1979816 C101.382049,38.9442124 101.306472,38.7608161 101.163716,38.6413953 C101.016761,38.5283721 100.762739,38.4707942 100.395352,38.4707942 C100.323974,38.4707942 100.189615,38.4729267 100.002773,38.4771918 L100.002773,38.4771918 Z M105.435903,40.613971 L105.1231,39.71405 L103.613663,39.71405 L103.305058,40.613971 L102.440124,40.613971 L104.190986,36.0973058 L104.531081,36.0973058 L106.298738,40.613971 L105.435903,40.613971 L105.435903,40.613971 Z M104.365232,37.4599824 L103.836195,39.1020184 L104.890071,39.1020184 L104.365232,37.4599824 L104.365232,37.4599824 Z M106.55486,40.613971 L106.55486,40.3623344 L108.385497,36.8607459 L106.588449,36.8607459 L106.588449,36.1591487 L109.441473,36.1591487 L109.441473,36.4107854 L107.606636,39.9123738 L109.506553,39.9123738 L109.506553,40.613971 L106.55486,40.613971 L106.55486,40.613971 Z M112.760553,40.613971 L112.437252,39.71405 L110.932015,39.71405 L110.629708,40.613971 L109.762674,40.613971 L111.509337,36.0973058 L111.85783,36.0973058 L113.619189,40.613971 L112.760553,40.613971 L112.760553,40.613971 Z M111.683584,37.4599824 L111.156646,39.1020184 L112.208422,39.1020184 L111.683584,37.4599824 L111.683584,37.4599824 Z M116.640161,40.613971 L116.325258,39.71405 L114.822119,39.71405 L114.511415,40.613971 L113.652779,40.613971 L115.395243,36.0973058 L115.739538,36.0973058 L117.502996,40.613971 L116.640161,40.613971 L116.640161,40.613971 Z M115.56949,37.4599824 L115.038353,39.1020184 L116.098527,39.1020184 L115.56949,37.4599824 L115.56949,37.4599824 Z M120.439993,40.613971 L119.268553,38.7736112 C119.153089,38.7714787 118.98724,38.7672137 118.775205,38.7480211 L118.775205,40.613971 L117.969052,40.613971 L117.969052,36.1591487 C118.01104,36.1591487 118.176889,36.1506187 118.472898,36.1335586 C118.768907,36.1207635 118.999836,36.1079684 119.186678,36.1079684 C120.299336,36.1079684 120.855666,36.5472663 120.855666,37.4237297 C120.855666,37.6881615 120.773791,37.9312681 120.626836,38.1487846 C120.469384,38.3641685 120.276244,38.515577 120.041116,38.6072751 L121.338517,40.613971 L120.439993,40.613971 L120.439993,40.613971 Z M118.775205,36.8458183 L118.775205,38.0848091 C118.924259,38.0912067 119.033425,38.0997367 119.104803,38.0997367 C119.434402,38.0997367 119.667431,38.0549539 119.820684,37.9589908 C119.971837,37.8672927 120.045314,37.686029 120.045314,37.4173322 C120.045314,37.1976832 119.969738,37.0462747 119.79969,36.9588416 C119.640139,36.8714085 119.388216,36.8287582 119.037624,36.8287582 C118.957849,36.8287582 118.865477,36.8351558 118.775205,36.8458183 L118.775205,36.8458183 Z" id="Fill-11" fill="#E7792B"></path>
                </g>
            </g>
        </g>
    </g>
</svg>