<?xml version="1.0" encoding="UTF-8" standalone="no"?>
<svg width="16px" height="20px" viewBox="0 0 16 20" version="1.1" xmlns="http://www.w3.org/2000/svg" xmlns:xlink="http://www.w3.org/1999/xlink">
    <!-- Generator: sketchtool 39.1 (31720) - http://www.bohemiancoding.com/sketch -->
    <title>AE66B573-1380-4F26-B585-9D5A6F67748C</title>
    <desc>Created with sketchtool.</desc>
    <defs>
        <rect id="path-1" x="2.66666667" y="3.61904762" width="9.77777778" height="1.35714286" rx="0.678571429"></rect>
        <mask id="mask-2" maskContentUnits="userSpaceOnUse" maskUnits="objectBoundingBox" x="-1.5" y="-1.5" width="12.7777778" height="4.35714286">
            <rect x="1.16666667" y="2.11904762" width="12.7777778" height="4.35714286" fill="white"></rect>
            <use xlink:href="#path-1" fill="black"></use>
        </mask>
    </defs>
    <g id="Welcome" stroke="none" stroke-width="1" fill="none" fill-rule="evenodd">
        <g id="Farmer-onboarding-form_website" transform="translate(-1260.000000, -21.000000)">
            <g id="icon-farmer" transform="translate(1250.000000, 13.000000)">
                <g>
                    <rect id="Rectangle-2" x="0" y="0" width="36" height="36"></rect>
                    <g id="Group-22" transform="translate(10.000000, 9.000000)">
                        <g id="Icon" transform="translate(0.000000, 2.714286)" fill="#4CAF50">
                            <path d="M7.62860571,7.67755102 C3.51209024,7.67755102 0.0857485714,9.7701391 0.0857485714,12.5632653 C0.0857485714,12.9487375 0.392753314,13.2612245 0.771462857,13.2612245 C1.1501724,13.2612245 1.45717714,12.9487375 1.45717714,12.5632653 C1.45717714,10.7308714 4.170958,9.07346939 7.62860571,9.07346939 C11.0862534,9.07346939 13.8000343,10.7308714 13.8000343,12.5632653 C13.8000343,12.9487375 14.107039,13.2612245 14.4857486,13.2612245 C14.8644581,13.2612245 15.1714629,12.9487375 15.1714629,12.5632653 C15.1714629,9.7701391 11.7451212,7.67755102 7.62860571,7.67755102 Z" id="Stroke-13"></path>
                            <path d="M12.0857486,4.53977082 C12.0857486,2.03424758 10.0901724,0.00303612245 7.62860571,0.00303612245 C5.16703903,0.00303612245 3.17146286,2.03424758 3.17146286,4.53977082 C3.17146286,7.04529405 5.16703903,9.07650551 7.62860571,9.07650551 C10.0901724,9.07650551 12.0857486,7.04529405 12.0857486,4.53977082 Z M4.54289143,4.53977082 C4.54289143,2.80519201 5.92445811,1.39895449 7.62860571,1.39895449 C9.33275331,1.39895449 10.71432,2.80519201 10.71432,4.53977082 C10.71432,6.27434962 9.33275331,7.68058714 7.62860571,7.68058714 C5.92445811,7.68058714 4.54289143,6.27434962 4.54289143,4.53977082 Z" id="Stroke-15"></path>
                            <path d="M13.7142857,14.8543163 C13.7142857,14.8802939 13.7093084,14.9099028 13.7106721,14.9066613 C13.761176,14.7866093 13.904808,14.6571429 14.1329143,14.6571429 L1.12422857,14.6571429 C1.33692288,14.6571429 1.37142857,14.6975771 1.37142857,14.8543163 L1.37142857,12.5632653 C1.37142857,12.1777931 1.06442383,11.8653061 0.685714286,11.8653061 C0.307004743,11.8653061 0,12.1777931 0,12.5632653 L0,14.8543163 C0,15.4282455 0.533203607,16.0530612 1.12422857,16.0530612 L14.1329143,16.0530612 C14.8413003,16.0530612 15.0857143,15.4720693 15.0857143,14.8543163 L15.0857143,12.5632653 C15.0857143,12.1777931 14.7787095,11.8653061 14.4,11.8653061 C14.0212905,11.8653061 13.7142857,12.1777931 13.7142857,12.5632653 L13.7142857,14.8543163 Z" id="Stroke-17"></path>
                        </g>
                        <g id="Rectangle-10">
                            <use fill="#FFFFFF" fill-rule="evenodd" xlink:href="#path-1"></use>
                            <use stroke="#4CAF50" mask="url(#mask-2)" stroke-width="3" xlink:href="#path-1"></use>
                        </g>
                        <path d="M11.5258247,3.33719308 C11.5258247,1.08860517 9.76469455,0 7.55555556,0 C5.34641656,0 3.52582465,1.08860517 3.52582465,3.33719308" id="Oval-3" stroke="#4CAF50" stroke-width="1.5"></path>
                    </g>
                </g>
            </g>
        </g>
    </g>
</svg>